<?xml version="1.0" encoding="UTF-8"?>
<!-- Created with Inkscape (http://www.inkscape.org/) -->
<svg width="50" height="50" version="1.1" viewBox="0 0 13.229 13.229" xmlns="http://www.w3.org/2000/svg">
 <path d="m-13.472 20.55-0.29807-1.7154 0.13308-0.0676c0.07319-0.03718 0.93146-0.46014 1.9073-0.93991 0.9758-0.47977 2.2285-1.0959 2.7838-1.3692 0.55529-0.27329 1.0584-0.52044 1.118-0.54923 0.05959-0.02879 0.47078-0.23097 0.91378-0.44929s0.81162-0.39794 0.81915-0.39916c0.0079-0.0013 0.13312 0.68507 0.30224 1.6584 0.16186 0.93151 0.23282 1.3424 0.26009 1.5337 0.02054 0.14353-0.03826 0.26491-0.16381 0.33421-0.42428 0.21532-1.9138 0.95086-3.6623 1.8078-1.5714 0.77015-2.7807 1.3511-3.3483 1.6296-0.20548 0.09159-0.4853-0.0088-0.52636-0.2469zm-2.1077 1.084c-1.0297-0.36776-1.8898-0.67942-1.9113-0.69258-0.02155-0.01316-0.05639-0.0484-0.0774-0.07831-0.03638-0.05178-0.05246-0.13638-0.33632-1.77-0.29127-1.6763-0.29723-1.7144-0.25981-1.6606 0.02106 0.03024 0.06155 0.06797 0.08996 0.08384 0.02842 0.01587 0.89388 0.32848 1.9233 0.69469l1.8716 0.66583 0.29765 1.7119c0.08315 0.47825 0.15727 0.91245 0.20925 1.224 0.10672 0.56951-0.88485 0.13752-1.8069-0.17878zm1.0214-3.39-0.47232-0.16889 2.1706-0.91501c1.1938-0.50326 2.5546-1.077 3.024-1.2749 0.46935-0.19795 0.95521-0.40232 1.0797-0.45415 0.82694-0.34434 1.2418-0.52701 1.3325-0.58666 0.09338-0.06141 0.18544-0.14178 0.30968-0.27037 0.07311-0.07566 0.14515-0.10485 0.22639-0.0917 0.07272 0.01177 0.4658 0.14696 0.46825 0.16105 9.05e-4 5e-3 -0.14613 0.08143-0.32667 0.16986-0.18054 0.08844-0.49698 0.24396-0.7032 0.34562-0.20623 0.10165-0.50801 0.2503-0.67063 0.33032s-0.34759 0.17114-0.41103 0.20247c-0.063446 0.03134-0.15439 0.07559-0.2021 0.09835-0.11128 0.05306-0.53103 0.25935-1.5651 0.76916-0.45607 0.22485-1.2284 0.60516-1.7163 0.84513-0.48789 0.23997-1.1473 0.5643-1.4654 0.72074-0.31806 0.15644-0.58455 0.28521-0.5922 0.28617-0.0076 9.48e-4 -0.22645-0.07427-0.48622-0.16716zm-0.84103-0.63168c-0.11502-0.03396-0.19003-0.14064-0.17846-0.25379 0.0053-0.05205 0.21158-0.4129 0.52299-0.91496 0.02871-0.04629 0.57214-0.94512 1.2076-1.9974 0.63548-1.0523 1.1807-1.9408 1.2115-1.9745 0.30522-0.33336 0.7902-0.51103 1.2301-0.45062 0.06938 0.0095 0.31456 0.07264 0.54484 0.14026 0.23028 0.06761 0.42316 0.1166 0.42863 0.10886 0.0055-0.0077 0.04042-0.1501 0.07766-0.31636 0.03725-0.16626 0.07853-0.32144 0.09176-0.34484 0.01322-0.0234 0.07894-0.08138 0.14602-0.12883l0.12198-0.08629-0.00215-0.06864c-0.00295-0.09395 0.036839-0.20672 0.10311-0.29233 0.11121-0.14364 1.3171-1.431 1.3873-1.481 0.15675-0.11172 0.46594-0.19381 0.72031-0.19125 0.41642 0.00419 0.76452 0.28584 0.83179 0.673 0.02307 0.1327 0.01281 0.26598-0.03027 0.39379-0.04187 0.12419-0.18675 0.32084-0.28917 0.39247-0.04322 0.03023-0.52131 0.25906-1.0624 0.50852-1.0768 0.49642-1.0879 0.50055-1.2616 0.46789l-0.088665-0.01667-0.13083 0.09348-0.14008 0.62701c-0.11448 0.51242-0.1476 0.63655-0.18122 0.67924-0.02262 0.02873-0.56394 0.48349-1.2029 1.0106-1.2175 1.0043-1.2024 0.99041-1.2049 1.1092-0.0036 0.17275 0.19814 0.30668 0.35542 0.23593 0.0275-0.01238 0.5786-0.45794 1.2247-0.99016 1.2809-1.0551 1.2985-1.0716 1.361-1.2709 0.016415-0.05234 0.058718-0.22589 0.094011-0.38567 0.035291-0.15978 0.065542-0.29301 0.067227-0.29608 0.00382-0.0069 1.5796 0.46003 1.6302 0.48307 0.08532 0.03881 0.22389 0.14623 0.27982 0.21692 0.13822 0.17468 0.20202 0.40736 0.16675 0.60818-0.03665 0.20868-0.15209 0.39104-0.32104 0.50715-0.0624 0.04288-1.0802 0.47772-3.8274 1.6353-2.0583 0.86727-3.7593 1.5796-3.78 1.5829-0.02069 0.0033-0.06731-0.0027-0.10363-0.01341zm-1.5579-0.22527c-0.5224-0.18567-0.96345-0.33538-0.9801-0.33268-0.08004 0.01297 0.03629-0.04395 0.54706-0.26765 0.87548-0.38344 0.8954-0.39206 0.92946-0.40212 0.04964-0.01467 0.11822-0.04574 0.13312-0.0603 0.03198-0.03127 0.34611-0.15025 0.39735-0.15051 0.07684-3.82e-4 0.15381 0.04036 0.19906 0.10534 0.0831 0.11933 0.07106 0.16936-0.11402 0.4742-0.0729 0.12007-0.14836 0.24982-0.1677 0.28835-0.01934 0.03852-0.04455 0.07157-0.05603 0.07343-0.01147 0.0019-0.01726 0.01472-0.01286 0.02858s2e-3 0.06706-0.0054 0.11823c-0.01529 0.1056 0.02147 0.34438 0.06339 0.41199 0.01358 0.02186 0.02283 0.04222 0.0206 0.04525-0.0022 3e-3 -0.43147-0.14641-0.95388-0.33209z" stroke-width=".015184"/>
 <g>
  <path d="m-15.997 1.7901c-0.61264-0.13798-1.0582-0.54181-1.2657-1.1472-0.06406-0.1869-0.07299-0.25209-0.07299-0.53278s0.0089-0.34588 0.07299-0.53278c0.18516-0.54022 0.54515-0.90547 1.0819-1.0977l0.21013-0.075256 2.3992-0.00746c2.3718-0.00738 2.4004-0.00685 2.5046 0.047001 0.11825 0.06114 0.21125 0.21386 0.21125 0.34692 0 0.11981-0.09297 0.28502-0.19092 0.33926-0.07923 0.04388-0.25227 0.04812-2.4652 0.06053l-2.38 0.01333-0.14796 0.07368c-0.17584 0.08755-0.37089 0.28974-0.44933 0.4658-0.08028 0.18017-0.08028 0.55323 0 0.73341 0.07844 0.17605 0.27349 0.37824 0.44933 0.46579l0.14796 0.07368h5.9434l0.12515-0.05912c0.17546-0.08289 0.37396-0.28045 0.45939-0.45722 0.062763-0.12987 0.072468-0.18208 0.072468-0.38982 0-0.20775-0.00971-0.25995-0.072468-0.38982-0.12893-0.26683-0.39345-0.4683-0.67786-0.51634-0.18273-0.030858-0.30689-0.10738-0.36655-0.2259-0.04853-0.096412-0.05295-0.15642-0.05295-0.71924v-0.61406h-0.92149c-0.87165 0-0.92711-0.00288-1.0253-0.053663-0.13176-0.068124-0.19734-0.19581-0.23245-0.45262-0.03253-0.23788-0.12016-0.38006-0.29038-0.47114l-0.1159-0.062014h-1.2236c-1.1952 0-1.2263 0.00131-1.3394 0.056841-0.15229 0.074713-0.26892 0.2372-0.26892 0.37465 0 0.15224-0.08658 0.30406-0.20969 0.36771-0.29128 0.1506-0.57926-0.052001-0.57926-0.40751 0-0.38906 0.30828-0.85434 0.69034-1.0419 0.29453-0.14459 0.34885-0.14935 1.7028-0.14935 1.0375 0 1.2781 0.00697 1.408 0.040792 0.43874 0.11418 0.77586 0.41584 0.92205 0.8251l0.05723 0.16021 0.68669 0.0071c0.61023 0.00631 0.68669 0.00242 0.68669-0.034852 0-0.023075-0.07128-0.53599-0.1584-1.1398-0.17783-1.2325-0.20687-1.3462-0.39432-1.5433l-0.12136-0.12761h-0.86652c-0.98184 0-0.98047-2.722e-4 -1.1287 0.21154l-0.0789 0.11274-0.01315 0.51082c-0.01084 0.42105-0.02133 0.526-0.05971 0.59718-0.05352 0.099263-0.21655 0.19349-0.33476 0.19349-0.13312 0-0.28195-0.094164-0.34416-0.21774-0.05238-0.10405-0.05495-0.1413-0.04453-0.64595 0.0099-0.48148 0.01723-0.55168 0.0723-0.69545 0.16821-0.43915 0.50664-0.74811 0.91597-0.8362 0.17711-0.038113 1.8391-0.039563 2.0009-0.00173 0.28783 0.067249 0.57286 0.28543 0.76017 0.58188 0.17754 0.281 0.2307 0.49061 0.37388 1.4743 0.073163 0.50265 0.15854 1.0518 0.18972 1.2204 0.047429 0.25639 0.059108 0.44317 0.071455 1.1425l0.014761 0.83604 0.12641 0.050284c0.43726 0.17394 0.78662 0.55786 0.9552 1.0497 0.064062 0.1869 0.072993 0.25209 0.072993 0.53278s-0.00893 0.34588-0.072993 0.53278c-0.18516 0.54022-0.54515 0.90548-1.0819 1.0977l-0.21013 0.07525-2.9849 0.0048c-2.4048 0.0039-3.0155-0.0021-3.1427-0.03067zm0.55913-1.3218c-0.11102-0.05941-0.2041-0.21665-0.2041-0.34481 0-0.20281 0.19436-0.39978 0.39448-0.39978s0.39448 0.19697 0.39448 0.39978c0 0.13225-0.09303 0.2858-0.20969 0.34612-0.12959 0.06701-0.24827 0.0666-0.37516-0.0013zm1.1834 0c-0.11102-0.05941-0.2041-0.21665-0.2041-0.34481 0-0.20281 0.19436-0.39978 0.39448-0.39978s0.39448 0.19697 0.39448 0.39978c0 0.13225-0.09303 0.2858-0.20969 0.34612-0.12959 0.06701-0.24827 0.0666-0.37516-0.0013zm1.1571 0c-0.11102-0.05941-0.2041-0.21665-0.2041-0.34481 0-0.13225 0.09303-0.2858 0.20969-0.34612 0.05709-0.02952 0.14024-0.05366 0.18478-0.05366 0.20012 0 0.39448 0.19697 0.39448 0.39978 0 0.13225-0.09303 0.2858-0.20969 0.34612-0.12959 0.06701-0.24827 0.0666-0.37516-0.0013zm1.1571 0c-0.11102-0.059407-0.2041-0.21665-0.2041-0.34481 0-0.13225 0.09303-0.2858 0.20969-0.34612 0.05709-0.02952 0.14024-0.05366 0.18478-0.05366 0.20012 0 0.39448 0.19697 0.39448 0.39978 0 0.13225-0.09303 0.2858-0.20969 0.34612-0.12959 0.06701-0.24827 0.0666-0.37516-0.0013zm1.1571 0c-0.11102-0.05941-0.2041-0.21665-0.2041-0.34481 0-0.13225 0.09302-0.2858 0.20969-0.34612 0.05709-0.02952 0.14024-0.05366 0.18478-0.05366 0.20012 0 0.39448 0.19697 0.39448 0.39978 0 0.13225-0.09303 0.2858-0.20969 0.34612-0.12959 0.06701-0.24827 0.0666-0.37516-0.0013zm4.9372-2.2611c-0.20301-0.059274-0.28771-0.10562-0.4375-0.23938-0.15063-0.13452-0.26633-0.31623-0.32622-0.51236-0.05124-0.16779-0.0403-0.28316 0.03942-0.41559 0.14594-0.24247 0.54984-0.22447 0.6689 0.029803 0.02323 0.049627 0.04224 0.10982 0.04224 0.13378 0 0.11659 0.16479 0.25489 0.30372 0.25489 0.10641 0 0.24648-0.078566 0.28915-0.16218 0.08512-0.16683 0.0121-0.41406-0.13946-0.47219-0.03965-0.015206-0.12432-0.033733-0.18815-0.041159-0.13234-0.015406-0.22598-0.076678-0.31128-0.20371l-0.05917-0.08811v-6.8417l-0.61801 0.0013-1.1294 2.5513c-1.481 3.3457-1.3795 3.132-1.521 3.2014-0.14312 0.070217-0.22941 0.070813-0.36154 0.00252-0.11672-0.060347-0.20969-0.21388-0.20969-0.34629 0-0.050531 0.2953-0.74724 0.76578-1.8067 0.42118-0.94847 0.77265-1.7425 0.78104-1.7645 0.0084-0.021987-0.29588 0.31383-0.67617 0.74626s-0.7288 0.80672-0.77447 0.83176c-0.18052 0.098967-0.42274 0.021719-0.51661-0.16475-0.06019-0.11957-0.06576-0.19538-0.0234-0.31854 0.03928-0.11419 3.0949-3.5938 3.2253-3.6729 0.09517-0.05768 0.12043-0.05954 0.81589-0.05997 0.66787-4.03e-4 0.72488 0.0033 0.82147 0.05322 0.06681 0.03454 0.12266 0.09115 0.15674 0.15885 0.05225 0.10378 0.05297 0.15121 0.05402 3.551l0.0011 3.4458 0.13699 0.065115c0.19078 0.090684 0.39775 0.30872 0.49692 0.52349 0.11238 0.24337 0.13332 0.58602 0.05035 0.82396-0.20301 0.58225-0.79083 0.90086-1.357 0.73554z" stroke-width=".026475"/>
  <path d="m34.513-1.7442c-0.79716-0.13652-1.4261-0.70105-1.6479-1.4792-0.08409-0.29505-0.08409-0.7745 0-1.0696 0.19836-0.69591 0.71334-1.2148 1.4216-1.4325l0.19151-0.058844 2.5112-0.00833c1.945-0.00648 2.5378-0.00102 2.6289 0.024206 0.22085 0.061167 0.41863 0.32499 0.41863 0.55842 0 0.2027-0.14589 0.43353-0.33266 0.52633-0.09418 0.046792-0.21952 0.0498-2.5971 0.06225-2.4915 0.013042-2.4985 0.013227-2.6205 0.069609-0.17323 0.08006-0.34847 0.25153-0.43303 0.42371-0.09625 0.196-0.10345 0.52383-0.01569 0.71459 0.0796 0.173 0.2511 0.34839 0.42346 0.43303l0.14758 0.07247h7.2722l0.14758-0.07247c0.17236-0.08464 0.34386-0.26002 0.42346-0.43303 0.04358-0.09473 0.05627-0.17245 0.05627-0.34466 0-0.2634-0.05253-0.40186-0.22234-0.5861-0.16542-0.17946-0.34087-0.25419-0.64771-0.27587-0.29548-0.020883-0.41376-0.067813-0.53867-0.21374-0.13099-0.15304-0.14721-0.24451-0.14721-0.83039v-0.52668h-0.87983c-0.59205 0-0.91297-0.00993-0.98115-0.030361-0.17069-0.051142-0.29952-0.18558-0.41812-0.43633-0.12776-0.27012-0.20173-0.35645-0.37602-0.43884l-0.1308-0.061833h-3.7146l-0.13098 0.061c-0.07204 0.033546-0.16795 0.1031-0.21313 0.15455-0.07224 0.082272-0.19214 0.34062-0.19214 0.41398 0 0.014533-0.05592 0.082105-0.12425 0.15016-0.24961 0.24856-0.57283 0.25065-0.81819 0.00528-0.19267-0.19267-0.22291-0.36816-0.11954-0.69367 0.17579-0.55358 0.61314-0.99129 1.1855-1.1865l0.20346-0.069396h4.1331l0.20927 0.07345c0.41042 0.14405 0.75771 0.40717 0.96489 0.73105l0.09615 0.1503h0.65317c0.63703 0 0.65317-0.0013 0.65317-0.052632 0-0.091102-0.5198-1.9037-0.62912-2.1938-0.19117-0.50731-0.42225-0.84088-0.68229-0.98491l-0.1404-0.07776-0.5938-0.0087c-0.37888-0.0056-0.64607 0.0022-0.73819 0.02131-0.2217 0.04602-0.43523 0.16604-0.59683 0.33547-0.2539 0.26618-0.36007 0.55186-0.36007 0.96883 0 0.32053-0.03547 0.43338-0.18239 0.5803-0.11857 0.11857-0.26069 0.18239-0.40619 0.18239-0.22646 0-0.49349-0.19598-0.5566-0.4085-0.04394-0.14796-0.04013-0.58426 0.0075-0.85735 0.09518-0.54579 0.30669-0.9466 0.70553-1.337 0.33468-0.32756 0.7057-0.52081 1.1906-0.62015 0.21936-0.04494 0.33024-0.04967 0.94184-0.04022 0.72749 0.01124 0.83099 0.02522 1.1379 0.1538 0.33514 0.14039 0.73295 0.49378 0.97225 0.86371 0.14804 0.22885 0.34518 0.64252 0.45312 0.95081 0.04534 0.12949 0.21094 0.69143 0.36802 1.2488l0.28559 1.0133 0.0138 1.89 0.14387 0.04506c0.63666 0.19938 1.1483 0.73549 1.3384 1.4023 0.08357 0.29319 0.08406 0.7747 0.0011 1.0656-0.19972 0.70016-0.71101 1.2176-1.4187 1.4356l-0.19548 0.06023-3.6884 0.0041c-2.0286 0.0022-3.7434-0.0053-3.8105-0.01682zm0.13522-1.4728c-0.1981-0.06279-0.39238-0.3372-0.39238-0.55421 0-0.30032 0.28825-0.58857 0.58857-0.58857 0.30032 0 0.58858 0.28825 0.58858 0.58857 0 0.14549-0.06381 0.28761-0.18239 0.40618-0.16956 0.16956-0.37509 0.22007-0.60238 0.14803zm1.7003 0c-0.1981-0.06279-0.39238-0.3372-0.39238-0.55421 0-0.30032 0.28825-0.58857 0.58857-0.58857 0.14549 0 0.28762 0.06381 0.40619 0.18239 0.24306 0.24306 0.24306 0.56931 0 0.81237-0.16956 0.16956-0.37509 0.22007-0.60238 0.14803zm1.7003 0c-0.1981-0.06279-0.39238-0.3372-0.39238-0.55421 0-0.30032 0.28825-0.58857 0.58857-0.58857 0.14549 0 0.28761 0.06381 0.40619 0.18239 0.24306 0.24306 0.24306 0.56931 0 0.81237-0.16956 0.16956-0.37509 0.22007-0.60238 0.14803zm1.7003 0c-0.1981-0.06279-0.39238-0.3372-0.39238-0.55421 0-0.30032 0.28825-0.58857 0.58858-0.58857s0.58857 0.28825 0.58857 0.58857c0 0.14549-0.06381 0.28761-0.18239 0.40618-0.16956 0.16956-0.37509 0.22007-0.60238 0.14803zm1.6742 0c-0.12696-0.040238-0.3211-0.24178-0.36041-0.37414-0.06781-0.22835-0.0196-0.41624 0.15041-0.58626 0.11857-0.11857 0.26069-0.18239 0.40619-0.18239 0.30032 0 0.58857 0.28825 0.58857 0.58857 0 0.14549-0.06381 0.28761-0.18239 0.40618-0.16956 0.16956-0.37509 0.22007-0.60238 0.14803zm2.5446-3.8244c-0.41222-0.089566-0.80326-0.4023-0.99725-0.79755-0.18701-0.38101-0.17372-0.61799 0.04699-0.83772 0.24419-0.24312 0.56991-0.24316 0.81298-7.87e-5 0.07171 0.07171 0.13118 0.16134 0.15074 0.22719 0.04584 0.15436 0.18473 0.27055 0.32338 0.27055 0.08919 0 0.12356-0.016754 0.20836-0.10156 0.08247-0.082466 0.10156-0.12031 0.10156-0.20132 0-0.13308-0.1079-0.28959-0.21603-0.31333-0.1118-0.024557-0.31425-0.23509-0.35365-0.36778-0.02071-0.069748-0.03197-0.29906-0.03197-0.65095 0-0.35189 0.01126-0.5812 0.03197-0.65094 0.04204-0.14158 0.23495-0.33448 0.37652-0.37652 0.22835-0.06781 0.41624-0.0196 0.58626 0.15041 0.1535 0.1535 0.18239 0.25782 0.18239 0.65872v0.32494l0.16613 0.17027c0.11525 0.11812 0.19952 0.23799 0.27515 0.39139 0.55092 1.1174-0.43948 2.3702-1.6635 2.1043zm-1.8645-2.5061c-0.22551-0.071479-0.41753-0.37887-0.38556-0.61722 0.0075-0.05611 0.25698-0.65767 0.55434-1.3368 0.29736-0.67912 0.5361-1.2393 0.53053-1.2449-0.0056-0.0056-0.48008 0.18578-1.0545 0.42521-0.57439 0.23943-1.0931 0.44086-1.1526 0.44761-0.32413 0.03676-0.63874-0.2559-0.6367-0.59227 6.63e-4 -0.10978 0.08178-0.30286 0.16454-0.39164 0.08028-0.08612 0.11309-0.1012 1.3259-0.60895l1.0856-0.45448 1.0464-0.0078c0.77527-0.0057 1.0768 6.92e-4 1.164 0.02483 0.1504 0.04165 0.35054 0.23578 0.39015 0.37843 0.0409 0.1473 0.03798 1.6068-0.0035 1.7465-0.01922 0.0647-0.07925 0.15494-0.15041 0.22611-0.22797 0.22797-0.54064 0.24203-0.7823 0.03518-0.16278-0.13932-0.19692-0.2376-0.2122-0.61081l-0.01337-0.3264-0.58655 1.3392c-0.63583 1.4517-0.65114 1.4786-0.88816 1.5622-0.13054 0.046032-0.26301 0.048041-0.39563 0.00602z" stroke-width=".026159"/>
  <path d="m38.086 15.085c-0.79861-0.13677-1.4287-0.70232-1.6509-1.4818-0.08425-0.29558-0.08425-0.77591 0-1.0715 0.19881-0.69749 0.71802-1.2204 1.4241-1.4342 0.18424-0.05579 0.24124-0.05848 1.4364-0.06777 1.4196-0.01104 1.4128-0.01178 1.5995 0.17573 0.22846 0.22947 0.24255 0.54224 0.03533 0.78433-0.17442 0.20377-0.13431 0.19814-1.5166 0.21285-1.1926 0.01268-1.2356 0.01491-1.3542 0.06973-0.17355 0.08021-0.34911 0.25199-0.43382 0.42448-0.09642 0.19636-0.10364 0.52478-0.01572 0.71588 0.07973 0.17332 0.25156 0.34902 0.42422 0.43382l0.14784 0.07261h7.2854l0.14784-0.07261c0.17267-0.08479 0.34448-0.2605 0.42422-0.43382 0.04366-0.0949 0.05638-0.17276 0.05638-0.34529 0-0.26388-0.05262-0.40259-0.22275-0.58716-0.16572-0.17978-0.34149-0.25464-0.64889-0.27636-0.29602-0.02092-0.41451-0.06793-0.53965-0.21413-0.13123-0.15331-0.14748-0.24496-0.14748-0.83189v-0.52764h-0.88142c-0.59312 0-0.91462-0.0099-0.98294-0.03042-0.171-0.05123-0.30006-0.18591-0.41888-0.43712-0.12799-0.27061-0.20209-0.35709-0.3767-0.43964l-0.13103-0.061943-1.8549-2.573e-4c-1.9901-2.779e-4 -1.9608-0.00214-2.1026 0.13114-0.06625 0.062255-0.25487 0.13067-0.3602 0.13067-0.3072 0-0.59594-0.28568-0.59594-0.58964 0-0.32104 0.31556-0.62304 0.8124-0.7775l0.19655-0.061104h4.1144l0.20383 0.069508c0.40191 0.13707 0.76489 0.41195 0.97246 0.73644l0.09632 0.15057h0.65435c0.63818 0 0.65435-0.00127 0.65435-0.05273 0-0.091267-0.52075-1.9072-0.63026-2.1978-0.19152-0.50823-0.42302-0.84241-0.68354-0.9867l-0.14066-0.0779-0.59488-0.0087c-0.37956-0.0056-0.64724 0.0021-0.73953 0.02135-0.43529 0.09037-0.79951 0.44874-0.91787 0.90316-0.05528 0.21222-0.11429 0.32052-0.22742 0.41736-0.24209 0.20724-0.55486 0.19315-0.78433-0.035307-0.20561-0.20471-0.22787-0.412-0.08869-0.82614 0.13845-0.41198 0.31209-0.68788 0.62674-0.99584 0.33529-0.32816 0.70698-0.52175 1.1928-0.62127 0.21976-0.04502 0.33083-0.04977 0.94355-0.04029 0.72881 0.01126 0.83249 0.02528 1.14 0.15408 0.33575 0.14064 0.73428 0.49468 0.97402 0.86527 0.14831 0.22927 0.3458 0.64368 0.45394 0.95253 0.04542 0.12972 0.21132 0.69268 0.36868 1.251l0.28611 1.0152 0.0069 0.94671 0.0069 0.94671 0.14414 0.04514c0.63781 0.19974 1.1504 0.73683 1.3408 1.4049 0.08372 0.29372 0.08422 0.77611 0.0011 1.0675-0.20008 0.70144-0.7123 1.2198-1.4213 1.4382l-0.19583 0.06034-3.6951 0.0041c-2.0323 0.0022-3.7502-0.0054-3.8175-0.01685zm0.13546-1.4755c-0.19846-0.06291-0.39309-0.33782-0.39309-0.55522 0-0.30087 0.28877-0.58964 0.58964-0.58964s0.58964 0.28877 0.58964 0.58964c0 0.14576-0.06393 0.28814-0.18272 0.40692-0.16987 0.16987-0.37577 0.22047-0.60347 0.1483zm3.3806 0c-0.19846-0.06291-0.3931-0.33782-0.3931-0.55522 0-0.30087 0.28877-0.58964 0.58964-0.58964 0.14576 0 0.28814 0.06393 0.40692 0.18272 0.24351 0.24351 0.24351 0.57034 0 0.81385-0.16987 0.16987-0.37577 0.22047-0.60347 0.1483zm3.4068 0c-0.12719-0.04031-0.32169-0.24222-0.36106-0.37482-0.06794-0.22876-0.01964-0.417 0.15069-0.58733 0.11879-0.11879 0.26117-0.18272 0.40692-0.18272 0.30087 0 0.58964 0.28877 0.58964 0.58964 0 0.14576-0.06393 0.28814-0.18272 0.40692-0.16987 0.16987-0.37578 0.22047-0.60347 0.1483zm2.6017-4.4078c-0.41296-0.089736-0.80472-0.40303-0.99906-0.79899-0.18735-0.38171-0.17403-0.61911 0.04707-0.83924 0.24464-0.24356 0.57095-0.2436 0.81446-7.9e-5 0.07184 0.071838 0.13142 0.16164 0.15101 0.2276 0.04592 0.15464 0.18507 0.27105 0.32397 0.27105 0.08935 0 0.12378-0.016787 0.20874-0.10174 0.08262-0.08262 0.10174-0.12053 0.10174-0.20169 0-0.13332-0.1081-0.29011-0.21642-0.3139-0.112-0.024596-0.31482-0.23552-0.35429-0.36844-0.02391-0.080524-0.03203-0.57396-0.03203-1.9458 0-1.0109-0.0058-1.838-0.01293-1.838-0.0112 0-0.85167 0.54382-1.9919 1.2888-0.3532 0.23078-0.46432 0.28356-0.59706 0.28356-0.33445 0-0.63188-0.32922-0.58865-0.65155 0.01495-0.11152 0.0751-0.24899 0.14618-0.3341 0.06274-0.07513 2.72-1.8019 2.832-1.8403 0.12019-0.04122 0.84223-0.04012 0.98234 0.0015 0.14183 0.04212 0.33509 0.23537 0.37721 0.37721 0.02402 0.08089 0.03203 0.6089 0.03203 2.1106v2.0027l0.16643 0.17058c0.11546 0.11833 0.19988 0.23842 0.27565 0.3921 0.55192 1.1195-0.44027 2.3745-1.6666 2.1081z" stroke-width=".026206"/>
 </g>
 <path d="m1.8328 13.102c-0.79212-0.13497-1.4171-0.6931-1.6374-1.4624-0.08357-0.2917-0.08357-0.76572 0-1.0574 0.19719-0.68833 0.71218-1.2043 1.4126-1.4154 0.18275-0.05506 0.23927-0.057728 1.4247-0.066879 1.408-0.010934 1.4013-0.011618 1.5865 0.17343 0.2266 0.22645 0.24058 0.53512 0.035051 0.77403-0.173 0.2011-0.13321 0.19554-1.5043 0.21005-1.1829 0.01252-1.2255 0.0147-1.3432 0.06882-0.17214 0.07915-0.34627 0.24868-0.43029 0.4189-0.095642 0.19378-0.1028 0.51789-0.015593 0.70648 0.079087 0.17104 0.24951 0.34444 0.42077 0.42812l0.14664 0.07165h7.2261l0.14664-0.07165c0.17126-0.08368 0.34168-0.25708 0.42077-0.42812 0.043308-0.09365 0.055916-0.17049 0.055916-0.34075 0-0.26041-0.052202-0.39731-0.22094-0.57945-0.16437-0.17743-0.33871-0.2513-0.64361-0.27274-0.29361-0.020638-0.41114-0.06704-0.53526-0.21132-0.13017-0.1513-0.14628-0.24174-0.14628-0.82097v-0.52071h-0.87425c-0.5883 0-0.90719-0.00987-0.97494-0.030012-0.16961-0.050559-0.29762-0.18347-0.41547-0.43138-0.12696-0.26706-0.20045-0.3524-0.37364-0.43387l-0.12997-0.061131-1.8399-2.537e-4c-1.974-2.739e-4 -1.9448-0.0021142-2.0855 0.12942-0.065721 0.061433-0.2528 0.12896-0.35727 0.12896-0.30471 0-0.59109-0.28193-0.59109-0.5819 0-0.31683 0.31299-0.61486 0.80579-0.76729l0.19495-0.060302h4.0809l0.20218 0.068598c0.39865 0.13527 0.75867 0.40654 0.96455 0.72677l0.09554 0.1486h0.64903c0.633 0 0.64903-0.00131 0.64903-0.05204 0-0.090065-0.51651-1.8821-0.62513-2.1689-0.18996-0.50156-0.41958-0.83134-0.67797-0.97374l-0.13952-0.076887-0.59005-0.0085675c-0.37648-0.0054567-0.64197 0.0021343-0.73351 0.021068-0.43175 0.08918-0.793 0.44285-0.9104 0.8913-0.054823 0.20943-0.11336 0.31631-0.22557 0.41187-0.24012 0.20449-0.55035 0.19059-0.77795-0.034877-0.20394-0.20202-0.22601-0.40659-0.087974-0.81529 0.13732-0.40657 0.30955-0.67885 0.62164-0.98276 0.33256-0.32384 0.70123-0.5149 1.1831-0.61311 0.21797-0.044428 0.32814-0.049105 0.93588-0.039768 0.72289 0.01111 0.82572 0.024945 1.1307 0.15205 0.33302 0.13879 0.72831 0.48818 0.9661 0.85391 0.14711 0.22626 0.34299 0.63523 0.45024 0.94002 0.045048 0.12802 0.20961 0.68359 0.36569 1.2346l0.28378 1.0018 0.00688 0.93428 0.00688 0.93428 0.14296 0.044549c0.63262 0.19712 1.1411 0.72715 1.3299 1.3864 0.08304 0.28986 0.08352 0.76591 0.0011 1.0535-0.19845 0.69222-0.70651 1.2038-1.4097 1.4193l-0.19424 0.05955-3.665 4e-3c-2.0158 0.0022-3.7197-0.0052-3.7864-0.01662zm9.4471-5.806c-0.40961-0.088555-0.79817-0.39774-0.99094-0.7885-0.18582-0.37669-0.17262-0.61098 0.046678-0.82822 0.24264-0.24036 0.5663-0.2404 0.80783-7.75e-5 0.07126 0.070893 0.13035 0.15951 0.14978 0.22461 0.04555 0.1526 0.18356 0.26749 0.32134 0.26749 0.08862 0 0.12277-0.016559 0.20704-0.1004 0.08194-0.081529 0.10091-0.11895 0.10091-0.19904 0-0.13157-0.10722-0.2863-0.21466-0.30978-0.11109-0.02428-0.31226-0.23242-0.35141-0.3636-0.02372-0.079468-0.03178-0.56642-0.03178-1.9203 0-0.9976-0.0057-1.8138-0.01282-1.8138-0.01111 0-0.84474 0.53668-1.9757 1.2719-0.35033 0.22775-0.46055 0.27983-0.59221 0.27983-0.33173 0-0.62674-0.32489-0.58386-0.643 0.014834-0.11006 0.074494-0.24572 0.145-0.32972 0.06223-0.074152 2.6979-1.7782 2.809-1.8161 0.11921-0.040671 0.83538-0.039598 0.97435 0.00145 0.14068 0.041565 0.33236 0.23228 0.37414 0.37225 0.02382 0.079817 0.03177 0.6009 0.03177 2.0829v1.9764l0.16508 0.16834c0.11452 0.11678 0.19826 0.23529 0.27341 0.38695 0.54744 1.1048-0.43669 2.3433-1.653 2.0804z" fill="#fff" stroke-width=".025928"/>
 <path d="m19.184-9.0377c-0.79207-0.13565-1.417-0.69657-1.6373-1.4697-0.08356-0.29316-0.08356-0.76956 0-1.0627 0.19709-0.69146 0.70872-1.207 1.4125-1.4233l0.19028-0.05849 2.5472-0.0083c1.9736-0.0065 2.5735-9.71e-4 2.6641 0.02406 0.21943 0.06076 0.41596 0.3229 0.41596 0.55485 0 0.20141-0.14496 0.43076-0.33054 0.52296-0.09364 0.04653-0.21921 0.04948-2.6325 0.06185-2.5288 0.01297-2.5345 0.01312-2.6557 0.06916-0.17213 0.07955-0.34625 0.24992-0.43026 0.421-0.09564 0.19475-0.10279 0.52048-0.01559 0.71002 0.07908 0.1719 0.2495 0.34616 0.42075 0.43026l0.14663 0.07201h7.2257l0.14663-0.07201c0.17126-0.0841 0.34166-0.25836 0.42075-0.43026 0.04331-0.09413 0.05591-0.17135 0.05591-0.34246 0-0.26172-0.0522-0.3993-0.22093-0.58235-0.16436-0.17832-0.33869-0.25256-0.64358-0.2741-0.2936-0.02075-0.41111-0.06738-0.53523-0.21238-0.13016-0.15206-0.14627-0.24295-0.14627-0.82508v-0.52332h-0.87421c-0.58827 0-0.90714-0.0099-0.97489-0.03017-0.1696-0.05082-0.2976-0.18439-0.41545-0.43354-0.12695-0.2684-0.20044-0.35417-0.37362-0.43604l-0.12996-0.06144-1.8454 3.14e-4c-1.7999 3.04e-4 -1.8483 0.0016-1.9624 0.0532-0.06433 0.02908-0.15498 0.08961-0.20144 0.13449-0.08042 0.07769-0.08447 0.09089-0.08447 0.27492 0 0.26606-0.04095 0.3847-0.18122 0.52497-0.24152 0.24152-0.56516 0.24148-0.80779-7.9e-5 -0.16004-0.15934-0.1884-0.27066-0.17679-0.69374l0.0092-0.33423 0.11696-0.20574c0.22106-0.38884 0.59331-0.69254 1.0324-0.8423l0.20216-0.06895h4.1067l0.20216 0.06895c0.39862 0.13595 0.75863 0.40858 0.9645 0.73041l0.09553 0.14934h0.649c0.63296 0 0.649-0.0013 0.649-0.05229 0-0.09052-0.51648-1.8915-0.6251-2.1798-0.18995-0.50407-0.41956-0.83551-0.67793-0.97862l-0.13951-0.07727-0.59001-0.0086c-0.37646-0.0055-0.64194 0.0022-0.73347 0.02117-0.22028 0.04573-0.43244 0.16498-0.59302 0.33333-0.25227 0.26448-0.35777 0.54834-0.35777 0.96264 0 0.31848-0.03524 0.43061-0.18122 0.57659-0.11781 0.11781-0.25903 0.18122-0.40359 0.18122-0.22501 0-0.49034-0.19473-0.55304-0.40589-0.04366-0.14702-0.03987-0.58053 0.0074-0.85187 0.09457-0.54231 0.30473-0.94055 0.70103-1.3284 0.33254-0.32547 0.70119-0.51748 1.183-0.61618 0.21796-0.04465 0.32812-0.04935 0.93582-0.03997 0.72284 0.01117 0.82568 0.02507 1.1306 0.15281 0.333 0.13949 0.72827 0.49063 0.96604 0.85819 0.1471 0.22739 0.34297 0.63841 0.45022 0.94473 0.04505 0.12866 0.20959 0.68701 0.36567 1.2408l0.28376 1.0069 0.0068 0.93896 0.0068 0.93896 0.14296 0.04477c0.63259 0.19811 1.141 0.73079 1.3298 1.3934 0.08303 0.29131 0.08352 0.76975 0.0011 1.0588-0.19844 0.69569-0.70647 1.2098-1.4096 1.4264l-0.19423 0.05985-3.6648 0.0041c-2.0157 0.0022-3.7194-0.0053-3.7862-0.01671zm9.4466-5.8351c-0.40958-0.089-0.79813-0.39973-0.99088-0.79245-0.18581-0.37858-0.17261-0.61404 0.04669-0.83237 0.24263-0.24157 0.56627-0.2416 0.80779-7.8e-5 0.07125 0.07125 0.13034 0.16031 0.14977 0.22574 0.04555 0.15337 0.18355 0.26882 0.32132 0.26882 0.08862 0 0.12277-0.01665 0.20703-0.10091 0.08194-0.08194 0.10091-0.11954 0.10091-0.20004 0-0.13223-0.10721-0.28774-0.21465-0.31133-0.11108-0.0244-0.31224-0.23359-0.35139-0.36542-0.02371-0.07986-0.03177-0.56926-0.03177-1.9299 0-1.0026-0.0058-1.8229-0.01293-1.8229-0.0071 0-0.61239 0.38994-1.3451 0.86654-0.73268 0.4766-1.3719 0.88012-1.4205 0.89671-0.20808 0.07107-0.44552 0.0051-0.59577-0.16564-0.21447-0.24365-0.21141-0.5567 0.0076-0.77961 0.11747-0.11955 3.0182-2.0141 3.1561-2.0613 0.11924-0.04084 0.83543-0.03973 0.97429 0.0015 0.14067 0.04178 0.33234 0.23345 0.37412 0.37412 0.02382 0.08022 0.03177 0.60391 0.03177 2.0933v1.9863l0.16507 0.16918c0.11451 0.11736 0.19825 0.23647 0.27339 0.38889 0.5474 1.1103-0.43667 2.3551-1.6529 2.0908z" stroke-width=".025992"/>
</svg>
