<?xml version="1.0" encoding="UTF-8"?>
<!-- Created with Inkscape (http://www.inkscape.org/) -->
<svg width="20" height="20" version="1.1" viewBox="0 0 5.2916 5.2916" xmlns="http://www.w3.org/2000/svg">
 <path d="m-9.0468 12.9-0.79933-0.40344v-2.9137l-0.7059-0.45156c-0.38824-0.24836-0.73356-0.45156-0.76736-0.45156-0.03381 0-0.06146 0.63307-0.06146 1.4068 0 0.77376-0.04678 1.4068-0.10397 1.4068-0.14042 0-0.72571-0.6366-0.90355-0.98276-0.08737-0.17007-0.14352-1.0326-0.14352-2.2049v-1.9255l2.2894-1.1498 1.426 2.3729c0.81407 1.3546 1.4899 2.3484 1.575 2.3157 0.081948-0.031431 1.4337-0.78193 3.0039-1.6677l2.8549-1.6106-0.04319 1.3816c-0.0585 1.871-0.06385 1.8771-3.2323 3.7112-2.9702 1.7193-3.1818 1.7755-4.3886 1.1664zm0.41655-6.2592-1.386-2.305-1.4744 0.76514c-0.81092 0.42083-1.5188 0.76514-1.573 0.76514-0.05426 0-0.16316-0.12054-0.242-0.26785-0.11816-0.22079-0.09427-0.3201 0.13603-0.56524 0.15366-0.16356 0.44635-0.36655 0.65042-0.45108 0.35062-0.14523 0.37105-0.19555 0.37105-0.91395 0-0.41814-0.04904-0.75228 0.13217-1.0072 0.30899-0.4347 1.0319-0.75937 1.4678-0.75937 0.4634 0 0.95983 0.38826 1.1523 0.64731 0.23979 0.27398 0.31899 0.15839 0.47017 0.073525 0.65449-0.41332 3.0035-1.8697 4.2913-2.3112 0.54685-0.22512 0.69587-0.083113 0.93662 0.29956 0.69208 1.1012 2.3924 3.9469 2.463 4.1435 0.04563 0.12703 0.0057 0.41479-0.08879 0.63947-0.14556 0.3462-0.58726 0.6426-2.8958 1.9432-1.4982 0.8441-2.7917 1.5514-2.8744 1.5718-0.082694 0.0204-0.77406-1.0001-1.5364-2.2679z" stroke-width=".12789"/>
 <path d="m-24.393 11.238-0.29807-1.7154 0.13308-0.067596c0.07319-0.037178 0.93146-0.46014 1.9073-0.93991 0.9758-0.47977 2.2285-1.0959 2.7838-1.3692 0.55529-0.27329 1.0584-0.52044 1.118-0.54923 0.05959-0.028789 0.47078-0.23097 0.91378-0.44929s0.81162-0.39794 0.81915-0.39916c0.0079-0.0013 0.13312 0.68507 0.30224 1.6584 0.16186 0.93151 0.23282 1.3424 0.26009 1.5337 0.02054 0.14353-0.03826 0.26491-0.16381 0.33421-0.42428 0.21532-1.9138 0.95086-3.6623 1.8078-1.5714 0.77015-2.7807 1.3511-3.3483 1.6296-0.20548 0.09159-0.4853-0.0088-0.52636-0.2469zm-2.1077 1.084c-1.0297-0.36776-1.8898-0.67942-1.9113-0.69258-0.02155-0.01316-0.05639-0.0484-0.0774-0.07831-0.03638-0.05178-0.05246-0.13638-0.33632-1.77-0.29126-1.6763-0.29723-1.7144-0.25981-1.6606 0.02106 0.030243 0.06155 0.067971 0.08996 0.083842 0.02842 0.015872 0.89388 0.32848 1.9233 0.69469l1.8716 0.66583 0.29764 1.7119c0.08315 0.47825 0.15727 0.91245 0.20925 1.224 0.10672 0.56951-0.88485 0.13752-1.8069-0.17878zm1.0214-3.39-0.47232-0.16889 2.1706-0.91501c1.1938-0.50326 2.5546-1.077 3.024-1.2749 0.46935-0.19795 0.95521-0.40232 1.0797-0.45415 0.82694-0.34434 1.2418-0.52701 1.3325-0.58666 0.09338-0.061412 0.18544-0.14178 0.30968-0.27037 0.07311-0.075664 0.14515-0.10485 0.22639-0.091701 0.07272 0.011773 0.4658 0.14696 0.46825 0.16105 9.05e-4 0.00499-0.14613 0.081429-0.32667 0.16986-0.18054 0.088436-0.49698 0.24396-0.7032 0.34562-0.20623 0.10165-0.50801 0.2503-0.67063 0.33032-0.16262 0.080022-0.34759 0.17114-0.41103 0.20247-0.06345 0.03134-0.15439 0.075595-0.2021 0.098346-0.11128 0.053061-0.53103 0.25935-1.5651 0.76916-0.45607 0.22485-1.2284 0.60516-1.7163 0.84513-0.48789 0.23997-1.1473 0.5643-1.4654 0.72074-0.31806 0.15644-0.58455 0.28521-0.5922 0.28617-0.0076 9.486e-4 -0.22645-0.074272-0.48622-0.16716zm-0.84103-0.63168c-0.11502-0.033958-0.19003-0.14064-0.17846-0.25379 0.0053-0.052051 0.21158-0.4129 0.52299-0.91496 0.02871-0.046289 0.57214-0.94512 1.2076-1.9974 0.63548-1.0523 1.1807-1.9408 1.2115-1.9745 0.30522-0.33336 0.7902-0.51103 1.2301-0.45062 0.06938 0.00953 0.31456 0.072645 0.54484 0.14026 0.23028 0.06761 0.42316 0.1166 0.42863 0.10886 0.0055-0.00774 0.04042-0.1501 0.07767-0.31636s0.07853-0.32144 0.09176-0.34484c0.01322-0.0234 0.07894-0.081376 0.14602-0.12883l0.12198-0.086287-0.0022-0.068639c-0.0029-0.093947 0.03684-0.20672 0.10311-0.29233 0.11121-0.14364 1.3171-1.431 1.3873-1.481 0.15675-0.11172 0.46594-0.19381 0.72031-0.19125 0.41642 0.004193 0.76452 0.28584 0.83179 0.673 0.02307 0.1327 0.01281 0.26598-0.03027 0.39379-0.04187 0.12419-0.18675 0.32084-0.28917 0.39247-0.04322 0.030229-0.52131 0.25906-1.0624 0.50852-1.0768 0.49642-1.0879 0.50055-1.2616 0.46789l-0.08867-0.016668-0.06541 0.04674-0.06542 0.04674-0.14008 0.62701c-0.11448 0.51242-0.1476 0.63655-0.18122 0.67924-0.02262 0.028729-0.56394 0.48349-1.2029 1.0106-1.2175 1.0043-1.2024 0.99041-1.2049 1.1092-0.0036 0.17275 0.19814 0.30668 0.35542 0.23593 0.0275-0.012376 0.5786-0.45794 1.2247-0.99016 1.2809-1.0551 1.2985-1.0716 1.361-1.2709 0.01641-0.052342 0.05872-0.22589 0.09401-0.38567s0.06554-0.29301 0.06723-0.29608c0.0038-0.00691 1.5796 0.46003 1.6302 0.48307 0.08532 0.038814 0.22389 0.14623 0.27982 0.21692 0.13822 0.17468 0.20202 0.40736 0.16675 0.60818-0.03665 0.20868-0.15209 0.39104-0.32104 0.50715-0.0624 0.042875-1.0802 0.47772-3.8274 1.6353-2.0583 0.86727-3.7593 1.5796-3.78 1.5829-0.02069 0.00334-0.06732-0.0027-0.10363-0.013405zm-1.5579-0.22527c-0.5224-0.18567-0.96345-0.33538-0.9801-0.33268-0.08004 0.012966 0.03629-0.043949 0.54706-0.26765 0.87548-0.38344 0.8954-0.39206 0.92946-0.40212 0.04964-0.014672 0.11822-0.045737 0.13312-0.060301 0.03198-0.031269 0.34611-0.15025 0.39735-0.15051 0.07684-3.815e-4 0.15381 0.040356 0.19906 0.10534 0.0831 0.11933 0.07106 0.16936-0.11402 0.4742-0.0729 0.12007-0.14836 0.24982-0.1677 0.28835-0.01934 0.038525-0.04455 0.071567-0.05603 0.073425-0.01147 0.00187-0.01726 0.01472-0.01286 0.028579 0.0044 0.013863 2e-3 0.067058-0.0054 0.11823-0.01528 0.1056 0.02147 0.34438 0.06339 0.41199 0.01358 0.021857 0.02283 0.042219 0.0206 0.045245-0.0022 0.00303-0.43147-0.14641-0.95388-0.33209z" stroke-width=".015184"/>
 <path d="m-26.278 26.427-0.56261-0.72642-0.48578 0.34496c-0.73216 0.51992-1.275 0.50295-1.6723-0.05228-0.23918-0.33428-0.26353-0.6512-0.07839-1.0201 0.08535-0.17005 1.3173-1.2171 3.0526-2.5944l2.9095-2.3092-0.11578-0.3052c-0.06886-0.18153-0.08999-0.6427-0.05214-1.1381 0.05472-0.71616 0.10674-0.90986 0.3712-1.3821 0.59369-1.0601 1.5232-1.6799 2.7271-1.8182 1.1609-0.13341 2.308 0.35193 3.0598 1.2945 1.5014 1.8826 0.69326 4.678-1.5773 5.4557-0.88095 0.30174-1.8367 0.25599-2.5793-0.12346l-0.50738-0.25924-3.0994 2.373 1.133 1.4746-0.59018 0.45636-0.56014-0.70038-0.47075 0.36401 0.47178 0.78068-0.81083 0.61168zm7.1638-5.4376c1.4088-0.44858 1.9732-2.2145 1.0854-3.3961-0.98561-1.3117-2.7722-1.2639-3.7016 0.09911-0.2698 0.39565-0.42133 1.2502-0.30513 1.7206 0.31016 1.2557 1.6529 1.9803 2.9214 1.5764z" stroke-width=".097412"/>
 <path d="m16.412 13.194c-0.17069-0.33426-0.31035-0.63196-0.31035-0.66154s0.30114-0.05379 0.66921-0.05379 0.66921 0.0242 0.66921 0.05379c0 0.09528-0.61898 1.2693-0.66921 1.2693-0.02669 0-0.18817-0.27349-0.35886-0.60775zm8.4729 0.48916c-0.06083-0.07471-0.23079-0.37258-0.3777-0.66191l-0.2671-0.52606 0.71842-0.03371c0.39513-0.01854 0.71607-0.0108 0.71319 0.01718-0.0028 0.02799-0.1562 0.34101-0.34072 0.69561-0.26019 0.50001-0.36032 0.61423-0.44609 0.50888zm-9.6184-1.6624c-0.57396-0.30836-0.64584-1.2701-0.12519-1.6749 0.26135-0.20322 0.38642-0.20796 5.4904-0.20796 5.104 0 5.229 0.0047 5.4904 0.20796 0.53036 0.4124 0.44648 1.3768-0.14611 1.6797-0.42445 0.21698-10.305 0.21258-10.709-0.0048zm10.625-2.1027c-0.13731-0.050335-2.5612-0.078354-5.4309-0.062769l-5.1829 0.028143 3.3e-5 -0.92184 3.2e-5 -0.92183-0.42208-0.18409c-1.3199-0.57567-0.5289-2.5914 0.80129-2.042 0.51688 0.21349 0.65033 0.59045 0.65033 1.837v1.085l0.3346-0.056316c0.18403-0.030974 1.184-0.13586 2.222-0.23308 1.7991-0.16849 1.9726-0.16832 3.7064 0.00369 1.0004 0.099274 1.9463 0.20479 2.1021 0.23448l0.28312 0.053976v-1.1244c0-1.0584 0.0155-1.1426 0.264-1.4346 0.28858-0.33903 0.79456-0.52486 1.2135-0.44569 0.36981 0.06988 0.7699 0.49324 0.84623 0.89545 0.11756 0.61946-0.14969 1.081-0.73688 1.2725l-0.34437 0.11235-0.02926 0.99745-0.02927 0.99745zm-9.2776-2.3894c-0.0016-0.66516-0.05363-1.0139-0.19782-1.3279-0.19246-0.41905-0.62688-0.74462-0.99357-0.74462-0.15399 0-0.16632-0.085229-0.10565-0.73046 0.1373-1.4604 1.0168-2.662 2.2942-3.1345 0.5474-0.20246 0.74362-0.21358 3.2685-0.18529 2.6602 0.029805 2.6917 0.032698 3.2676 0.2996 1.2059 0.5589 1.9528 1.6694 2.0261 3.0128 0.03968 0.72691 0.03652 0.73787-0.21314 0.73787-0.36324 0-0.92328 0.40343-1.1331 0.81623-0.1306 0.25696-0.18006 0.60034-0.18017 1.251l-1.59e-4 0.89677-0.43756-0.056993c-2.7091-0.35289-3.4456-0.38408-5.092-0.2156-0.89421 0.091497-1.8227 0.19266-2.0634 0.2248l-0.43756 0.05844zm2.6107-1.4379c-0.25388 0.29103 0.15281 0.55848 0.33942 0.36071 0.2699-0.32835-0.18383-0.53169-0.33942-0.36071zm2.6812-0.05602c-0.28049 0.19155-0.01591 0.60099 0.28238 0.42127 0.28669-0.15869 0.05718-0.63657-0.28238-0.42127zm-0.02332-2.0957c0.27477 0.16574 0.52509-0.2453 0.25036-0.42954-0.28458-0.18658-0.55547 0.23455-0.25036 0.42954zm-2.2581-0.12696c0.20021-0.32616-0.24013-0.58341-0.43194-0.32828-0.21973 0.29226 0.18501 0.61082 0.43194 0.32828z" stroke-width=".10236"/>
 <path d="m-0.032154-6.5501c-0.28895-0.15794-0.61573-0.45727-0.77958-0.71409-0.057985-0.090899-0.094589-0.1149-0.26821-0.17588-0.27334-0.096008-0.59503-0.29767-0.80874-0.50698-0.70803-0.69344-0.881-1.7275-0.43752-2.6157l0.11709-0.2345-0.10266-0.19429c-0.056487-0.10686-0.13489-0.29934-0.17426-0.42772-0.063904-0.20829-0.07162-0.27398-0.07162-0.60998 0-0.33564 0.00772-0.40181 0.07132-0.609 0.13698-0.44656 0.38507-0.8236 0.72907-1.108 0.14292-0.11817 0.1635-0.1463 0.1578-0.21575-0.00375-0.04393-0.053715-0.58631-0.11129-1.2053-0.11656-1.2522-0.12261-1.4235-0.064203-1.8138 0.11049-0.73789 0.40825-1.3381 0.89436-1.8028 0.36593-0.3498 0.76163-0.55332 1.2325-0.6339 0.20467-0.03503 0.67761-0.03917 3.7538-0.03285l3.5196 0.0072 0.23015 0.07158c0.97364 0.30283 1.6361 1.0739 1.8796 2.1877 0.09959 0.45549 0.09299 0.75266-0.04705 2.1214l-0.1267 1.2385 0.16157 0.14331c0.30783 0.27303 0.52526 0.61982 0.65638 1.0469 0.06217 0.20248 0.07007 0.27071 0.07007 0.60478 0 0.336-0.0077 0.40169-0.07159 0.60998-0.03937 0.12838-0.11779 0.32086-0.17426 0.42772l-0.10267 0.19429 0.11709 0.2345c0.41288 0.82689 0.29204 1.7887-0.31296 2.4909-0.16036 0.18613-0.45547 0.40924-0.70714 0.53462-0.17277 0.08607-0.21298 0.11988-0.29892 0.2513-0.1971 0.30142-0.52848 0.605-0.82063 0.7518l-0.12391 0.06227h-1.8931l-0.15235-0.08053c-0.20734-0.10959-0.46652-0.32619-0.64031-0.53512-0.079396-0.095447-0.14436-0.18295-0.14436-0.19446 0-0.0115-0.48907-0.02091-1.0868-0.02091-0.59775 0-1.0868 0.0094-1.0868 0.02091 0 0.0115-0.064953 0.09901-0.14435 0.19446-0.17379 0.20893-0.43297 0.42553-0.64032 0.53512l-0.15235 0.08052-1.9044-9.42e-4zm1.4199-0.93493c0.17631-0.054 0.38818-0.19226 0.49422-0.32253 0.033338-0.04092 0.14378-0.20412 0.24546-0.36266l0.18488-0.28825h3.4506l0.18488 0.28825c0.23133 0.36068 0.27472 0.41374 0.4374 0.53496 0.44136 0.32885 1.112 0.2378 1.4616-0.19843 0.04427-0.05523 0.13416-0.20139 0.19978-0.32481l0.11932-0.22441 0.20114-0.07427c0.46475-0.17162 0.67158-0.33658 0.82463-0.65769 0.07524-0.15784 0.08324-0.19828 0.08341-0.42131 2.55e-4 -0.32073-0.03517-0.41113-0.34363-0.87726-0.13498-0.20397-0.24542-0.37611-0.24542-0.38253 0-0.0064 0.11601-0.18526 0.25779-0.3974 0.29943-0.44802 0.36079-0.61246 0.33812-0.90621-0.022152-0.28713-0.10372-0.4593-0.31845-0.67224-0.24597-0.24392-0.39777-0.30593-0.74885-0.30593s-0.50288 0.06202-0.74885 0.30593c-0.21032 0.20856-0.29565 0.38421-0.31659 0.65169-0.00674 0.0857 0.018129 0.44071 0.055213 0.78892 0.037083 0.34821 0.067425 0.64913 0.067425 0.66871 0 0.02997-0.52616 0.0356-3.3259 0.0356-2.7997 0-3.3259-0.0057-3.3259-0.0356 0-0.01958 0.030341-0.3205 0.067425-0.66871 0.037083-0.34821 0.061954-0.70322 0.055212-0.78892-0.020976-0.26748-0.10628-0.44314-0.31659-0.65169-0.24598-0.24392-0.39777-0.30593-0.74885-0.30593s-0.50288 0.06202-0.74885 0.30593c-0.21474 0.21294-0.2963 0.38512-0.31845 0.67224-0.022624 0.29375 0.038656 0.45818 0.33812 0.90621 0.14179 0.21215 0.25779 0.39098 0.25779 0.3974 0 0.0064-0.11043 0.17856-0.24542 0.38253-0.30847 0.46612-0.34387 0.55652-0.34362 0.87725 1.948e-4 0.22303 0.00816 0.26347 0.083411 0.42131 0.16903 0.35465 0.42039 0.53738 0.9048 0.65775l0.28051 0.06971 0.15543 0.26369c0.15018 0.2548 0.35384 0.48309 0.50119 0.56182 0.2458 0.13133 0.57125 0.16093 0.84558 0.07691zm4.5826-4.6676c0.071994-1.1556 0.98184-2.0424 2.1573-2.1026l0.29268-0.01498 0.01527-0.11959c0.0083-0.06578 0.05745-0.53445 0.10901-1.0415 0.06954-0.68393 0.09014-0.98894 0.07979-1.1816-0.036021-0.66994-0.38976-1.3099-0.85388-1.5446-0.27118-0.13719-0.10681-0.13187-3.8394-0.12434l-3.4551 7e-3 -0.14403 0.05812c-0.40563 0.16368-0.75313 0.60827-0.8924 1.1418-0.092828 0.35558-0.090843 0.62358 0.012661 1.7075 0.051767 0.54211 0.094109 1.0107 0.094109 1.0413 0 0.05205 0.016631 0.0567 0.25534 0.07132 1.1411 0.06988 2.0448 0.96049 2.1197 2.089l0.015957 0.24 1.4822 0.0069c0.81523 0.0038 1.7191 0.0097 2.0086 0.01319l0.52635 0.0062z" stroke-width=".026078"/>
 <path d="m1.2279 4.9824c-0.10463-0.05788-0.22297-0.16758-0.28231-0.26169-0.020997-0.033314-0.034256-0.042104-0.097125-0.064456-0.098982-0.035182-0.21547-0.10909-0.29286-0.18579-0.2564-0.25413-0.31903-0.63309-0.15844-0.95858l0.0424-0.085936-0.037178-0.071203c-0.020448-0.039165-0.048845-0.1097-0.063104-0.15675-0.023133-0.076332-0.025928-0.1004-0.025928-0.22354 0-0.123 0.002827-0.14725 0.025822-0.22318 0.049607-0.16365 0.13945-0.30182 0.26401-0.40605 0.051757-0.043304 0.059207-0.053613 0.057146-0.079066-0.001308-0.016097-0.019439-0.21487-0.040301-0.44171-0.042209-0.45891-0.044403-0.52166-0.023234-0.66472 0.040014-0.27042 0.14784-0.49038 0.32387-0.66067 0.13251-0.12819 0.27581-0.20278 0.44632-0.23231 0.074116-0.012836 0.24538-0.014353 1.3593-0.012035l1.2745 0.002668 0.083343 0.026231c0.35258 0.11098 0.59248 0.39355 0.68067 0.80174 0.03607 0.16692 0.033678 0.27583-0.017033 0.77744l-0.045884 0.45387 0.058509 0.052518c0.11147 0.10006 0.19021 0.22715 0.23769 0.38366 0.022511 0.074203 0.025377 0.099206 0.025377 0.22164 0 0.12314-0.00282 0.14721-0.025927 0.22354-0.01426 0.047049-0.042657 0.11759-0.063106 0.15675l-0.037176 0.071203 0.0424 0.085936c0.14952 0.30303 0.10576 0.65551-0.11333 0.91286-0.05807 0.06821-0.16494 0.14997-0.25608 0.19592-0.062563 0.03154-0.077128 0.043932-0.10825 0.092093-0.071375 0.11046-0.19137 0.22171-0.29717 0.27552l-0.044869 0.022814h-0.68553l-0.055169-0.029503c-0.075085-0.04016-0.16894-0.11954-0.23187-0.19611-0.028749-0.034975-0.052273-0.067047-0.052273-0.071262 0-0.00422-0.1771-0.00768-0.39356-0.00768-0.21646 0-0.39356 0.00343-0.39356 0.00768 0 0.00422-0.023524 0.036284-0.052273 0.071262-0.062934 0.076566-0.15679 0.15594-0.23188 0.19611l-0.05517 0.029513-0.68964-3.457e-4zm0.51417-0.34263c0.06385-0.019789 0.14057-0.070457 0.17897-0.1182 0.012062-0.014998 0.052064-0.074804 0.088887-0.1329l0.06695-0.10564h1.2495l0.06695 0.10564c0.083773 0.13218 0.099486 0.15163 0.1584 0.19605 0.15983 0.12052 0.40268 0.087148 0.52928-0.072721 0.016031-0.020242 0.048582-0.073802 0.072346-0.11903l0.043209-0.08224 0.072838-0.027222c0.1683-0.062894 0.2432-0.12335 0.29862-0.24102 0.02724-0.057844 0.030142-0.072663 0.030203-0.1544 9.33e-5 -0.11754-0.012733-0.15067-0.12444-0.32149-0.04888-0.074749-0.088872-0.13783-0.088872-0.14019 0-0.00232 0.042008-0.067891 0.093353-0.14564 0.10843-0.16419 0.13065-0.22445 0.12244-0.3321-0.008025-0.10522-0.037557-0.16832-0.11532-0.24636-0.089074-0.089388-0.14404-0.11212-0.27118-0.11212-0.12713 0-0.1821 0.022728-0.27118 0.11212-0.076162 0.076431-0.10706 0.1408-0.11465 0.23883-0.00241 0.031403 0.00656 0.16151 0.020001 0.28912 0.01343 0.12761 0.024419 0.23789 0.024419 0.24506 0 0.01099-0.19054 0.013047-1.2044 0.013047s-1.2044-0.00208-1.2044-0.013047c0-0.00717 0.010993-0.11745 0.024419-0.24506 0.013436-0.12761 0.022436-0.25771 0.020009-0.28912-0.00759-0.098023-0.03849-0.1624-0.11465-0.23883-0.089074-0.089389-0.14404-0.11212-0.27118-0.11212-0.12713 0-0.18211 0.022728-0.27118 0.11212-0.077761 0.078036-0.1073 0.14113-0.11532 0.24636-0.008211 0.10765 0.014011 0.16791 0.12244 0.3321 0.051346 0.077746 0.093353 0.14328 0.093353 0.14564 0 0.00232-0.039994 0.065439-0.088872 0.14019-0.1117 0.17082-0.12453 0.20395-0.12444 0.32149 6.12e-5 0.081735 0.002956 0.096552 0.030204 0.1544 0.061211 0.12997 0.15224 0.19693 0.32765 0.24104l0.10158 0.025541 0.056284 0.096635c0.054385 0.093376 0.12814 0.17704 0.18149 0.20589 0.089009 0.048129 0.20686 0.058976 0.30621 0.028182zm1.6595-1.7105c0.026063-0.42351 0.35555-0.74849 0.78121-0.77053l0.10599-0.00549 0.00554-0.043824c0.00305-0.024101 0.020808-0.19586 0.03948-0.38168 0.025175-0.25064 0.032634-0.36242 0.028882-0.43302-0.013047-0.24551-0.14114-0.48002-0.30921-0.56607-0.098201-0.050275-0.038676-0.048324-1.3903-0.045568l-1.2512 0.002537-0.052159 0.021295c-0.14689 0.05998-0.27273 0.22291-0.32316 0.41842-0.033615 0.13031-0.032898 0.22853 0.0045742 0.62575 0.018743 0.19867 0.03408 0.3704 0.03408 0.38162 0 0.019076 0.00603 0.020774 0.092465 0.026133 0.41322 0.025613 0.74048 0.35199 0.76761 0.76556l0.00578 0.087954 0.53676 0.00253c0.29522 0.00139 0.62253 0.00359 0.72737 0.00485l0.19061 0.00229z" fill="#fff" stroke-width=".0095002"/>
</svg>
