<?xml version="1.0" encoding="UTF-8"?>
<svg width="16" height="16" fill="none" version="1.1" viewBox="0 0 16 16" xmlns="http://www.w3.org/2000/svg" xmlns:xlink="http://www.w3.org/1999/xlink">
 <defs>
  <linearGradient id="linearGradient1283" x1="-14.16" x2="-2.0186" y1="4.9546" y2="4.9546" gradientTransform="matrix(.85377 0 0 .65392 -1.0189 2.9157)" gradientUnits="userSpaceOnUse">
   <stop stop-color="#3e516f" offset="0"/>
  </linearGradient>
 </defs>
 <path d="m4.1351 11.101 1.9959 2.0061 2.0061-1.9959 0.61309 0.62061-2.6224 2.6089-2.6089-2.6223z" fill="#3e516f" stroke-width=".65392"/>
 <path d="m21.288 8.3024c-0.10815-0.05072-1.8079-1.7564-1.8486-1.8551-0.13546-0.32805 0.21202-0.66305 0.54414-0.52459 0.04676 0.01949 0.24381 0.20154 0.56766 0.52444l0.49604 0.49458 1.15e-4 -3.2262c7.7e-5 -2.215 0.0065-3.2492 0.02054-3.2998 0.01125-0.04048 0.05075-0.10716 0.0878-0.14817 0.18769-0.20774 0.52395-0.16806 0.66209 0.07815l0.04816 0.08583 0.0096 3.2509 0.0096 3.2509 0.48159-0.48306c0.26488-0.26568 0.51375-0.4998 0.55306-0.52027 0.09588-0.04991 0.26222-0.04956 0.36087 7.7e-4 0.10114 0.0516 0.18673 0.16077 0.21349 0.2723 0.02445 0.1019 0.01296 0.18431-0.03999 0.2869-0.05325 0.10317-1.7461 1.7834-1.8333 1.8196-0.09624 0.03995-0.2389 0.03684-0.33292-0.0073zm1.7071-3.2605c-0.12225-0.02769-0.25842-0.16808-0.28976-0.29875-0.04458-0.18582 0.04189-0.37114 0.21294-0.45638l0.10139-0.05053 1.5036 1.16e-4c1.0006 7.6e-5 1.5282 0.0069 1.5772 0.02054 0.04048 0.01124 0.10716 0.05075 0.14817 0.0878 0.20775 0.18769 0.16806 0.52395-0.07815 0.66209l-0.08583 0.04816-1.5026 3e-3c-0.9364 0.0019-1.5344-0.0042-1.587-0.01609zm-0.04021-1.6553c-0.30381-0.12207-0.3497-0.53069-0.08079-0.71949l0.08353-0.05865h4.4013l0.07114 0.04816c0.03913 0.02649 0.09484 0.08209 0.1238 0.12357 0.04612 0.06604 0.05266 0.09357 0.05266 0.22153 0 0.12673-0.0068 0.15595-0.05117 0.22017-0.02814 0.04073-0.08449 0.09707-0.12521 0.12521l-0.07405 0.05117-2.1768 0.0037c-1.4043 0.0024-2.1937-0.0031-2.2244-0.01539zm-0.03661-1.6666c-0.17105-0.08524-0.25752-0.27055-0.21294-0.45638 0.03393-0.14142 0.16617-0.27053 0.30862-0.30131 0.07676-0.01658 0.65542-0.02092 2.2038-0.01649l2.0997 6e-3 0.08583 0.04816c0.2462 0.13814 0.28589 0.4744 0.07815 0.66209-0.04101 0.03705-0.10769 0.07656-0.14817 0.0878-0.04982 0.01384-0.75847 0.02047-2.1936 0.02054l-2.12 1.16e-4z" fill="#3e516f" stroke-width=".019264"/>
 <rect transform="matrix(.00096288 -1 .99999 .0039634 0 0)" x="-13.097" y="5.7305" width="10.343" height=".85009" fill="url(#linearGradient1283)" stroke="#a3f1fd" stroke-width=".020491" style="paint-order:stroke fill markers"/>
 <g fill="#3e516f" stroke="#a3f1fd">
  <rect x="7.7398" y="5.8465" width="3.2054" height=".85305" stroke-width=".011427" style="paint-order:stroke fill markers"/>
  <rect x="7.7338" y="4.1812" width="3.7202" height=".85217" stroke-width=".012304" style="paint-order:stroke fill markers"/>
  <rect x="7.7618" y="7.4671" width="2.5386" height=".8543" stroke-width=".010177" style="paint-order:stroke fill markers"/>
  <rect x="7.7721" y="9.1841" width="2.0147" height=".8554" stroke-width=".0090719" style="paint-order:stroke fill markers"/>
 </g>
</svg>
