<?xml version="1.0" encoding="UTF-8"?>
<!-- Created with Inkscape (http://www.inkscape.org/) -->
<svg width="50" height="50" version="1.1" viewBox="0 0 13.229 13.229" xmlns="http://www.w3.org/2000/svg">
 <path d="m-9.0468 12.9-0.79933-0.40344v-2.9137l-0.7059-0.45156c-0.38824-0.24836-0.73356-0.45156-0.76736-0.45156-0.03381 0-0.06146 0.63307-0.06146 1.4068 0 0.77376-0.04678 1.4068-0.10397 1.4068-0.14042 0-0.72571-0.6366-0.90355-0.98276-0.08737-0.17007-0.14352-1.0326-0.14352-2.2049v-1.9255l2.2894-1.1498 1.426 2.3729c0.81407 1.3546 1.4899 2.3484 1.575 2.3157 0.081948-0.031431 1.4337-0.78193 3.0039-1.6677l2.8549-1.6106-0.04319 1.3816c-0.0585 1.871-0.06385 1.8771-3.2323 3.7112-2.9702 1.7193-3.1818 1.7755-4.3886 1.1664zm0.41655-6.2592-1.386-2.305-1.4744 0.76514c-0.81092 0.42083-1.5188 0.76514-1.573 0.76514-0.05426 0-0.16316-0.12054-0.242-0.26785-0.11816-0.22079-0.09427-0.3201 0.13603-0.56524 0.15366-0.16356 0.44635-0.36655 0.65042-0.45108 0.35062-0.14523 0.37105-0.19555 0.37105-0.91395 0-0.41814-0.04904-0.75228 0.13217-1.0072 0.30899-0.4347 1.0319-0.75937 1.4678-0.75937 0.4634 0 0.95983 0.38826 1.1523 0.64731 0.23979 0.27398 0.31899 0.15839 0.47017 0.073525 0.65449-0.41332 3.0035-1.8697 4.2913-2.3112 0.54685-0.22512 0.69587-0.083113 0.93662 0.29956 0.69208 1.1012 2.3924 3.9469 2.463 4.1435 0.04563 0.12703 0.0057 0.41479-0.08879 0.63947-0.14556 0.3462-0.58726 0.6426-2.8958 1.9432-1.4982 0.8441-2.7917 1.5514-2.8744 1.5718-0.082694 0.0204-0.77406-1.0001-1.5364-2.2679z" stroke-width=".12789"/>
 <path d="m-24.393 11.238-0.29807-1.7154 0.13308-0.067596c0.07319-0.037178 0.93146-0.46014 1.9073-0.93991 0.9758-0.47977 2.2285-1.0959 2.7838-1.3692 0.55529-0.27329 1.0584-0.52044 1.118-0.54923 0.05959-0.028789 0.47078-0.23097 0.91378-0.44929s0.81162-0.39794 0.81915-0.39916c0.0079-0.0013 0.13312 0.68507 0.30224 1.6584 0.16186 0.93151 0.23282 1.3424 0.26009 1.5337 0.02054 0.14353-0.03826 0.26491-0.16381 0.33421-0.42428 0.21532-1.9138 0.95086-3.6623 1.8078-1.5714 0.77015-2.7807 1.3511-3.3483 1.6296-0.20548 0.09159-0.4853-0.0088-0.52636-0.2469zm-2.1077 1.084c-1.0297-0.36776-1.8898-0.67942-1.9113-0.69258-0.02155-0.01316-0.05639-0.0484-0.0774-0.07831-0.03638-0.05178-0.05246-0.13638-0.33632-1.77-0.29126-1.6763-0.29723-1.7144-0.25981-1.6606 0.02106 0.030243 0.06155 0.067971 0.08996 0.083842 0.02842 0.015872 0.89388 0.32848 1.9233 0.69469l1.8716 0.66583 0.29764 1.7119c0.08315 0.47825 0.15727 0.91245 0.20925 1.224 0.10672 0.56951-0.88485 0.13752-1.8069-0.17878zm1.0214-3.39-0.47232-0.16889 2.1706-0.91501c1.1938-0.50326 2.5546-1.077 3.024-1.2749 0.46935-0.19795 0.95521-0.40232 1.0797-0.45415 0.82694-0.34434 1.2418-0.52701 1.3325-0.58666 0.09338-0.061412 0.18544-0.14178 0.30968-0.27037 0.07311-0.075664 0.14515-0.10485 0.22639-0.091701 0.07272 0.011773 0.4658 0.14696 0.46825 0.16105 9.05e-4 0.00499-0.14613 0.081429-0.32667 0.16986-0.18054 0.088436-0.49698 0.24396-0.7032 0.34562-0.20623 0.10165-0.50801 0.2503-0.67063 0.33032-0.16262 0.080022-0.34759 0.17114-0.41103 0.20247-0.06345 0.03134-0.15439 0.075595-0.2021 0.098346-0.11128 0.053061-0.53103 0.25935-1.5651 0.76916-0.45607 0.22485-1.2284 0.60516-1.7163 0.84513-0.48789 0.23997-1.1473 0.5643-1.4654 0.72074-0.31806 0.15644-0.58455 0.28521-0.5922 0.28617-0.0076 9.486e-4 -0.22645-0.074272-0.48622-0.16716zm-0.84103-0.63168c-0.11502-0.033958-0.19003-0.14064-0.17846-0.25379 0.0053-0.052051 0.21158-0.4129 0.52299-0.91496 0.02871-0.046289 0.57214-0.94512 1.2076-1.9974 0.63548-1.0523 1.1807-1.9408 1.2115-1.9745 0.30522-0.33336 0.7902-0.51103 1.2301-0.45062 0.06938 0.00953 0.31456 0.072645 0.54484 0.14026 0.23028 0.06761 0.42316 0.1166 0.42863 0.10886 0.0055-0.00774 0.04042-0.1501 0.07767-0.31636s0.07853-0.32144 0.09176-0.34484c0.01322-0.0234 0.07894-0.081376 0.14602-0.12883l0.12198-0.086287-0.0022-0.068639c-0.0029-0.093947 0.03684-0.20672 0.10311-0.29233 0.11121-0.14364 1.3171-1.431 1.3873-1.481 0.15675-0.11172 0.46594-0.19381 0.72031-0.19125 0.41642 0.004193 0.76452 0.28584 0.83179 0.673 0.02307 0.1327 0.01281 0.26598-0.03027 0.39379-0.04187 0.12419-0.18675 0.32084-0.28917 0.39247-0.04322 0.030229-0.52131 0.25906-1.0624 0.50852-1.0768 0.49642-1.0879 0.50055-1.2616 0.46789l-0.08867-0.016668-0.06541 0.04674-0.06542 0.04674-0.14008 0.62701c-0.11448 0.51242-0.1476 0.63655-0.18122 0.67924-0.02262 0.028729-0.56394 0.48349-1.2029 1.0106-1.2175 1.0043-1.2024 0.99041-1.2049 1.1092-0.0036 0.17275 0.19814 0.30668 0.35542 0.23593 0.0275-0.012376 0.5786-0.45794 1.2247-0.99016 1.2809-1.0551 1.2985-1.0716 1.361-1.2709 0.01641-0.052342 0.05872-0.22589 0.09401-0.38567s0.06554-0.29301 0.06723-0.29608c0.0038-0.00691 1.5796 0.46003 1.6302 0.48307 0.08532 0.038814 0.22389 0.14623 0.27982 0.21692 0.13822 0.17468 0.20202 0.40736 0.16675 0.60818-0.03665 0.20868-0.15209 0.39104-0.32104 0.50715-0.0624 0.042875-1.0802 0.47772-3.8274 1.6353-2.0583 0.86727-3.7593 1.5796-3.78 1.5829-0.02069 0.00334-0.06732-0.0027-0.10363-0.013405zm-1.5579-0.22527c-0.5224-0.18567-0.96345-0.33538-0.9801-0.33268-0.08004 0.012966 0.03629-0.043949 0.54706-0.26765 0.87548-0.38344 0.8954-0.39206 0.92946-0.40212 0.04964-0.014672 0.11822-0.045737 0.13312-0.060301 0.03198-0.031269 0.34611-0.15025 0.39735-0.15051 0.07684-3.815e-4 0.15381 0.040356 0.19906 0.10534 0.0831 0.11933 0.07106 0.16936-0.11402 0.4742-0.0729 0.12007-0.14836 0.24982-0.1677 0.28835-0.01934 0.038525-0.04455 0.071567-0.05603 0.073425-0.01147 0.00187-0.01726 0.01472-0.01286 0.028579 0.0044 0.013863 2e-3 0.067058-0.0054 0.11823-0.01528 0.1056 0.02147 0.34438 0.06339 0.41199 0.01358 0.021857 0.02283 0.042219 0.0206 0.045245-0.0022 0.00303-0.43147-0.14641-0.95388-0.33209z" stroke-width=".015184"/>
 <path d="m8.9779 33.042-0.56261-0.72642-0.48578 0.34496c-0.73216 0.51992-1.275 0.50295-1.6723-0.05228-0.23918-0.33428-0.26353-0.6512-0.07839-1.0201 0.08535-0.17005 1.3173-1.2171 3.0526-2.5944l2.9095-2.3092-0.11578-0.3052c-0.06886-0.18153-0.08999-0.6427-0.05214-1.1381 0.05472-0.71616 0.10674-0.90986 0.3712-1.3821 0.59369-1.0601 1.5232-1.6799 2.7271-1.8182 1.1609-0.13341 2.308 0.35193 3.0598 1.2945 1.5014 1.8826 0.69326 4.678-1.5773 5.4557-0.88095 0.30174-1.8367 0.25599-2.5793-0.12346l-0.50738-0.25924-3.0994 2.373 1.133 1.4746-0.59018 0.45636-0.56014-0.70038-0.47075 0.36401 0.47178 0.78068-0.81083 0.61168zm7.1638-5.4376c1.4088-0.44858 1.9732-2.2145 1.0854-3.3961-0.98561-1.3117-2.7722-1.2639-3.7016 0.09911-0.2698 0.39565-0.42133 1.2502-0.30513 1.7206 0.31016 1.2557 1.6529 1.9803 2.9214 1.5764z" stroke-width=".097412"/>
 <path d="m2.383 13.093c0.10001-0.02159 0.29287-0.09297 0.42858-0.15864 0.66807-0.39837 1.1925-1.0633 1.7432-1.6129l1.4965-1.4935 0.25208 0.09446c0.53884 0.2019 1.016 0.2968 1.5992 0.3181 1.4505 0.052961 2.7676-0.48033 3.7804-1.5306 0.48496-0.50293 0.80072-0.98704 1.0512-1.6116 0.68233-1.7015 0.375-3.6616-0.79325-5.0593-0.48665-0.58221-1.0162-0.99449-1.7013-1.3245-1.6417-0.79094-3.5722-0.62214-5.0764 0.44387-0.31217 0.22124-0.83276 0.72854-1.0674 1.0402-0.71654 0.95158-1.0595 2.0369-1.0164 3.2167 0.021276 0.58348 0.11615 1.0608 0.31797 1.5999l0.094426 0.25218-2.6009 2.6081c-0.68045 0.57269-0.80961 1.6017-0.49128 2.2699 0.086607 0.17523 0.1552 0.26693 0.332 0.4438s0.26846 0.24549 0.44362 0.33212c0.12144 0.06006 0.28507 0.12666 0.36365 0.14799 0.21622 0.0587 0.62821 0.07024 0.84418 0.02363zm-0.59753-1.1725c-0.35491-0.12098-0.52426-0.54763-0.35527-0.89506 0.039676-0.081567 0.54181-0.60052 1.7537-1.8124l1.6981-1.6981-0.17852-0.40372c-0.22364-0.50578-0.31329-0.75913-0.38971-1.1013-0.052014-0.23288-0.060099-0.33896-0.059236-0.77644 8.53e-4 -0.42324 0.010575-0.55031 0.058485-0.77145 0.40449-1.8633 2.0645-3.1552 3.9404-3.0667 1.594 0.075192 2.9717 1.116 3.4774 2.6272 0.14149 0.42274 0.18156 0.68911 0.18219 1.211 6.36e-4 0.51875-0.04092 0.79691-0.18242 1.2213-0.37733 1.1317-1.2929 2.0467-2.4269 2.4254-0.4602 0.15368-0.67398 0.18569-1.2321 0.18447-0.71788-0.0015702-1.0113-0.072207-1.8609-0.44809l-0.40628-0.17975-1.6717 1.6741c-0.91943 0.92075-1.7054 1.6986-1.7466 1.7287-0.17228 0.12546-0.38558 0.15422-0.60052 0.08096z" fill="#fff" stroke-width=".02598"/>
</svg>
