<?xml version="1.0" encoding="UTF-8"?>
<!-- Created with Inkscape (http://www.inkscape.org/) -->
<svg width="50" height="50" version="1.1" viewBox="0 0 13.229 13.229" xmlns="http://www.w3.org/2000/svg">
 <path d="m6.2894 10.404c-0.39641-0.10674-0.75643-0.30057-1.5982-0.86046-0.65462-0.43539-0.89862-0.62467-1.308-1.0147-0.65036-0.61963-1.0452-1.1634-1.2748-1.7558-0.12644-0.32619-0.16122-0.52915-0.1732-1.0108-0.0092873-0.37344-0.0051904-0.45685 0.032968-0.67173 0.19813-1.1156 0.9866-1.9361 2.0924-2.1772 0.11148-0.02431 0.24855-0.03303 0.51369-0.032671 0.65677 8.833e-4 0.99086 0.065301 1.4642 0.28231 0.32515 0.14905 0.42439 0.17856 0.60309 0.17932 0.17495 7.656e-4 0.33114-0.046565 0.68112-0.2063 0.51132-0.23337 0.75093-0.28901 1.2445-0.28901 1.19 0 2.2645 0.73274 2.6319 1.7948 0.10829 0.31303 0.13578 0.48712 0.14736 0.93344 0.0165 0.63593-0.0461 0.92529-0.31296 1.4464-0.37582 0.73389-0.97952 1.3921-1.9853 2.1646-0.97339 0.74759-1.5684 1.1088-2.0032 1.216-0.21487 0.05297-0.5626 0.05384-0.75555 0.0019z" fill="#ff8080" stroke-width=".020244"/>
 <path d="m-9.0468 12.9-0.79933-0.40344v-2.9137l-0.7059-0.45156c-0.38824-0.24836-0.73356-0.45156-0.76736-0.45156-0.03381 0-0.06146 0.63307-0.06146 1.4068 0 0.77376-0.04678 1.4068-0.10397 1.4068-0.14042 0-0.72571-0.6366-0.90355-0.98276-0.08737-0.17007-0.14352-1.0326-0.14352-2.2049v-1.9255l2.2894-1.1498 1.426 2.3729c0.81407 1.3546 1.4899 2.3484 1.575 2.3157 0.081948-0.031431 1.4337-0.78193 3.0039-1.6677l2.8549-1.6106-0.04319 1.3816c-0.0585 1.871-0.06385 1.8771-3.2323 3.7112-2.9702 1.7193-3.1818 1.7755-4.3886 1.1664zm0.41655-6.2592-1.386-2.305-1.4744 0.76514c-0.81092 0.42083-1.5188 0.76514-1.573 0.76514-0.05426 0-0.16316-0.12054-0.242-0.26785-0.11816-0.22079-0.09427-0.3201 0.13603-0.56524 0.15366-0.16356 0.44635-0.36655 0.65042-0.45108 0.35062-0.14523 0.37105-0.19555 0.37105-0.91395 0-0.41814-0.04904-0.75228 0.13217-1.0072 0.30899-0.4347 1.0319-0.75937 1.4678-0.75937 0.4634 0 0.95983 0.38826 1.1523 0.64731 0.23979 0.27398 0.31899 0.15839 0.47017 0.073525 0.65449-0.41332 3.0035-1.8697 4.2913-2.3112 0.54685-0.22512 0.69587-0.083113 0.93662 0.29956 0.69208 1.1012 2.3924 3.9469 2.463 4.1435 0.04563 0.12703 0.0057 0.41479-0.08879 0.63947-0.14556 0.3462-0.58726 0.6426-2.8958 1.9432-1.4982 0.8441-2.7917 1.5514-2.8744 1.5718-0.082694 0.0204-0.77406-1.0001-1.5364-2.2679z" stroke-width=".12789"/>
 <path d="m-24.393 11.238-0.29807-1.7154 0.13308-0.067596c0.07319-0.037178 0.93146-0.46014 1.9073-0.93991 0.9758-0.47977 2.2285-1.0959 2.7838-1.3692 0.55529-0.27329 1.0584-0.52044 1.118-0.54923 0.05959-0.028789 0.47078-0.23097 0.91378-0.44929s0.81162-0.39794 0.81915-0.39916c0.0079-0.0013 0.13312 0.68507 0.30224 1.6584 0.16186 0.93151 0.23282 1.3424 0.26009 1.5337 0.02054 0.14353-0.03826 0.26491-0.16381 0.33421-0.42428 0.21532-1.9138 0.95086-3.6623 1.8078-1.5714 0.77015-2.7807 1.3511-3.3483 1.6296-0.20548 0.09159-0.4853-0.0088-0.52636-0.2469zm-2.1077 1.084c-1.0297-0.36776-1.8898-0.67942-1.9113-0.69258-0.02155-0.01316-0.05639-0.0484-0.0774-0.07831-0.03638-0.05178-0.05246-0.13638-0.33632-1.77-0.29126-1.6763-0.29723-1.7144-0.25981-1.6606 0.02106 0.030243 0.06155 0.067971 0.08996 0.083842 0.02842 0.015872 0.89388 0.32848 1.9233 0.69469l1.8716 0.66583 0.29764 1.7119c0.08315 0.47825 0.15727 0.91245 0.20925 1.224 0.10672 0.56951-0.88485 0.13752-1.8069-0.17878zm1.0214-3.39-0.47232-0.16889 2.1706-0.91501c1.1938-0.50326 2.5546-1.077 3.024-1.2749 0.46935-0.19795 0.95521-0.40232 1.0797-0.45415 0.82694-0.34434 1.2418-0.52701 1.3325-0.58666 0.09338-0.061412 0.18544-0.14178 0.30968-0.27037 0.07311-0.075664 0.14515-0.10485 0.22639-0.091701 0.07272 0.011773 0.4658 0.14696 0.46825 0.16105 9.05e-4 0.00499-0.14613 0.081429-0.32667 0.16986-0.18054 0.088436-0.49698 0.24396-0.7032 0.34562-0.20623 0.10165-0.50801 0.2503-0.67063 0.33032-0.16262 0.080022-0.34759 0.17114-0.41103 0.20247-0.06345 0.03134-0.15439 0.075595-0.2021 0.098346-0.11128 0.053061-0.53103 0.25935-1.5651 0.76916-0.45607 0.22485-1.2284 0.60516-1.7163 0.84513-0.48789 0.23997-1.1473 0.5643-1.4654 0.72074-0.31806 0.15644-0.58455 0.28521-0.5922 0.28617-0.0076 9.486e-4 -0.22645-0.074272-0.48622-0.16716zm-0.84103-0.63168c-0.11502-0.033958-0.19003-0.14064-0.17846-0.25379 0.0053-0.052051 0.21158-0.4129 0.52299-0.91496 0.02871-0.046289 0.57214-0.94512 1.2076-1.9974 0.63548-1.0523 1.1807-1.9408 1.2115-1.9745 0.30522-0.33336 0.7902-0.51103 1.2301-0.45062 0.06938 0.00953 0.31456 0.072645 0.54484 0.14026 0.23028 0.06761 0.42316 0.1166 0.42863 0.10886 0.0055-0.00774 0.04042-0.1501 0.07767-0.31636s0.07853-0.32144 0.09176-0.34484c0.01322-0.0234 0.07894-0.081376 0.14602-0.12883l0.12198-0.086287-0.0022-0.068639c-0.0029-0.093947 0.03684-0.20672 0.10311-0.29233 0.11121-0.14364 1.3171-1.431 1.3873-1.481 0.15675-0.11172 0.46594-0.19381 0.72031-0.19125 0.41642 0.004193 0.76452 0.28584 0.83179 0.673 0.02307 0.1327 0.01281 0.26598-0.03027 0.39379-0.04187 0.12419-0.18675 0.32084-0.28917 0.39247-0.04322 0.030229-0.52131 0.25906-1.0624 0.50852-1.0768 0.49642-1.0879 0.50055-1.2616 0.46789l-0.08867-0.016668-0.06541 0.04674-0.06542 0.04674-0.14008 0.62701c-0.11448 0.51242-0.1476 0.63655-0.18122 0.67924-0.02262 0.028729-0.56394 0.48349-1.2029 1.0106-1.2175 1.0043-1.2024 0.99041-1.2049 1.1092-0.0036 0.17275 0.19814 0.30668 0.35542 0.23593 0.0275-0.012376 0.5786-0.45794 1.2247-0.99016 1.2809-1.0551 1.2985-1.0716 1.361-1.2709 0.01641-0.052342 0.05872-0.22589 0.09401-0.38567s0.06554-0.29301 0.06723-0.29608c0.0038-0.00691 1.5796 0.46003 1.6302 0.48307 0.08532 0.038814 0.22389 0.14623 0.27982 0.21692 0.13822 0.17468 0.20202 0.40736 0.16675 0.60818-0.03665 0.20868-0.15209 0.39104-0.32104 0.50715-0.0624 0.042875-1.0802 0.47772-3.8274 1.6353-2.0583 0.86727-3.7593 1.5796-3.78 1.5829-0.02069 0.00334-0.06732-0.0027-0.10363-0.013405zm-1.5579-0.22527c-0.5224-0.18567-0.96345-0.33538-0.9801-0.33268-0.08004 0.012966 0.03629-0.043949 0.54706-0.26765 0.87548-0.38344 0.8954-0.39206 0.92946-0.40212 0.04964-0.014672 0.11822-0.045737 0.13312-0.060301 0.03198-0.031269 0.34611-0.15025 0.39735-0.15051 0.07684-3.815e-4 0.15381 0.040356 0.19906 0.10534 0.0831 0.11933 0.07106 0.16936-0.11402 0.4742-0.0729 0.12007-0.14836 0.24982-0.1677 0.28835-0.01934 0.038525-0.04455 0.071567-0.05603 0.073425-0.01147 0.00187-0.01726 0.01472-0.01286 0.028579 0.0044 0.013863 2e-3 0.067058-0.0054 0.11823-0.01528 0.1056 0.02147 0.34438 0.06339 0.41199 0.01358 0.021857 0.02283 0.042219 0.0206 0.045245-0.0022 0.00303-0.43147-0.14641-0.95388-0.33209z" stroke-width=".015184"/>
 <path d="m-26.278 26.427-0.56261-0.72642-0.48578 0.34496c-0.73216 0.51992-1.275 0.50295-1.6723-0.05228-0.23918-0.33428-0.26353-0.6512-0.07839-1.0201 0.08535-0.17005 1.3173-1.2171 3.0526-2.5944l2.9095-2.3092-0.11578-0.3052c-0.06886-0.18153-0.08999-0.6427-0.05214-1.1381 0.05472-0.71616 0.10674-0.90986 0.3712-1.3821 0.59369-1.0601 1.5232-1.6799 2.7271-1.8182 1.1609-0.13341 2.308 0.35193 3.0598 1.2945 1.5014 1.8826 0.69326 4.678-1.5773 5.4557-0.88095 0.30174-1.8367 0.25599-2.5793-0.12346l-0.50738-0.25924-3.0994 2.373 1.133 1.4746-0.59018 0.45636-0.56014-0.70038-0.47075 0.36401 0.47178 0.78068-0.81083 0.61168zm7.1638-5.4376c1.4088-0.44858 1.9732-2.2145 1.0854-3.3961-0.98561-1.3117-2.7722-1.2639-3.7016 0.09911-0.2698 0.39565-0.42133 1.2502-0.30513 1.7206 0.31016 1.2557 1.6529 1.9803 2.9214 1.5764z" stroke-width=".097412"/>
 <path d="m16.412 13.194c-0.17069-0.33426-0.31035-0.63196-0.31035-0.66154s0.30114-0.05379 0.66921-0.05379 0.66921 0.0242 0.66921 0.05379c0 0.09528-0.61898 1.2693-0.66921 1.2693-0.02669 0-0.18817-0.27349-0.35886-0.60775zm8.4729 0.48916c-0.06083-0.07471-0.23079-0.37258-0.3777-0.66191l-0.2671-0.52606 0.71842-0.03371c0.39513-0.01854 0.71607-0.0108 0.71319 0.01718-0.0028 0.02799-0.1562 0.34101-0.34072 0.69561-0.26019 0.50001-0.36032 0.61423-0.44609 0.50888zm-9.6184-1.6624c-0.57396-0.30836-0.64584-1.2701-0.12519-1.6749 0.26135-0.20322 0.38642-0.20796 5.4904-0.20796 5.104 0 5.229 0.0047 5.4904 0.20796 0.53036 0.4124 0.44648 1.3768-0.14611 1.6797-0.42445 0.21698-10.305 0.21258-10.709-0.0048zm10.625-2.1027c-0.13731-0.050335-2.5612-0.078354-5.4309-0.062769l-5.1829 0.028143 3.3e-5 -0.92184 3.2e-5 -0.92183-0.42208-0.18409c-1.3199-0.57567-0.5289-2.5914 0.80129-2.042 0.51688 0.21349 0.65033 0.59045 0.65033 1.837v1.085l0.3346-0.056316c0.18403-0.030974 1.184-0.13586 2.222-0.23308 1.7991-0.16849 1.9726-0.16832 3.7064 0.00369 1.0004 0.099274 1.9463 0.20479 2.1021 0.23448l0.28312 0.053976v-1.1244c0-1.0584 0.0155-1.1426 0.264-1.4346 0.28858-0.33903 0.79456-0.52486 1.2135-0.44569 0.36981 0.06988 0.7699 0.49324 0.84623 0.89545 0.11756 0.61946-0.14969 1.081-0.73688 1.2725l-0.34437 0.11235-0.02926 0.99745-0.02927 0.99745zm-9.2776-2.3894c-0.0016-0.66516-0.05363-1.0139-0.19782-1.3279-0.19246-0.41905-0.62688-0.74462-0.99357-0.74462-0.15399 0-0.16632-0.085229-0.10565-0.73046 0.1373-1.4604 1.0168-2.662 2.2942-3.1345 0.5474-0.20246 0.74362-0.21358 3.2685-0.18529 2.6602 0.029805 2.6917 0.032698 3.2676 0.2996 1.2059 0.5589 1.9528 1.6694 2.0261 3.0128 0.03968 0.72691 0.03652 0.73787-0.21314 0.73787-0.36324 0-0.92328 0.40343-1.1331 0.81623-0.1306 0.25696-0.18006 0.60034-0.18017 1.251l-1.59e-4 0.89677-0.43756-0.056993c-2.7091-0.35289-3.4456-0.38408-5.092-0.2156-0.89421 0.091497-1.8227 0.19266-2.0634 0.2248l-0.43756 0.05844zm2.6107-1.4379c-0.25388 0.29103 0.15281 0.55848 0.33942 0.36071 0.2699-0.32835-0.18383-0.53169-0.33942-0.36071zm2.6812-0.05602c-0.28049 0.19155-0.01591 0.60099 0.28238 0.42127 0.28669-0.15869 0.05718-0.63657-0.28238-0.42127zm-0.02332-2.0957c0.27477 0.16574 0.52509-0.2453 0.25036-0.42954-0.28458-0.18658-0.55547 0.23455-0.25036 0.42954zm-2.2581-0.12696c0.20021-0.32616-0.24013-0.58341-0.43194-0.32828-0.21973 0.29226 0.18501 0.61082 0.43194 0.32828z" stroke-width=".10236"/>
 <path d="m3.1405-10.272c-0.28895-0.15794-0.61573-0.45727-0.77958-0.71409-0.057985-0.0909-0.094589-0.1149-0.26821-0.17588-0.27334-0.09601-0.59503-0.29767-0.80874-0.50698-0.70803-0.69344-0.881-1.7275-0.43752-2.6157l0.11709-0.2345-0.10266-0.19429c-0.056487-0.10686-0.13489-0.29934-0.17426-0.42772-0.063904-0.20829-0.07162-0.27398-0.07162-0.60998 0-0.33564 0.007721-0.40181 0.07132-0.609 0.13698-0.44656 0.38507-0.8236 0.72907-1.108 0.14292-0.11817 0.1635-0.1463 0.1578-0.21575-0.00375-0.04393-0.053715-0.58631-0.11129-1.2053-0.11656-1.2522-0.12261-1.4235-0.064203-1.8138 0.11049-0.73789 0.40825-1.3381 0.89436-1.8028 0.36593-0.3498 0.76163-0.55332 1.2325-0.6339 0.20467-0.03503 0.67761-0.03917 3.7538-0.03285l3.5196 0.0072 0.23015 0.07158c0.97364 0.30283 1.6361 1.0739 1.8796 2.1877 0.09959 0.45549 0.09299 0.75266-0.04705 2.1214l-0.1267 1.2385 0.16157 0.14331c0.30783 0.27303 0.52526 0.61982 0.65638 1.0469 0.06217 0.20248 0.07007 0.27071 0.07007 0.60478 0 0.336-0.0077 0.40169-0.07159 0.60998-0.03937 0.12838-0.11779 0.32086-0.17426 0.42772l-0.10267 0.19429 0.11709 0.2345c0.41288 0.82689 0.29204 1.7887-0.31296 2.4909-0.16036 0.18613-0.45547 0.40924-0.70714 0.53462-0.17277 0.08607-0.21298 0.11988-0.29892 0.2513-0.1971 0.30142-0.52848 0.605-0.82063 0.7518l-0.12391 0.06227h-1.8931l-0.15235-0.08053c-0.20734-0.10959-0.46652-0.32619-0.64031-0.53512-0.079396-0.09545-0.14436-0.18295-0.14436-0.19446 0-0.0115-0.48907-0.02091-1.0868-0.02091-0.59775 0-1.0868 0.0094-1.0868 0.02091 0 0.0115-0.064953 0.09901-0.14435 0.19446-0.17379 0.20893-0.43297 0.42553-0.64032 0.53512l-0.15235 0.08052-1.9044-9.42e-4zm1.4199-0.93493c0.17631-0.054 0.38818-0.19226 0.49422-0.32253 0.033338-0.04092 0.14378-0.20412 0.24546-0.36266l0.18488-0.28825h3.4506l0.18488 0.28825c0.23133 0.36068 0.27472 0.41374 0.4374 0.53496 0.44136 0.32885 1.112 0.2378 1.4616-0.19843 0.04427-0.05523 0.13416-0.20139 0.19978-0.32481l0.11932-0.22441 0.20114-0.07427c0.46475-0.17162 0.67158-0.33658 0.82463-0.65769 0.07524-0.15784 0.08324-0.19828 0.08341-0.42131 2.55e-4 -0.32073-0.03517-0.41113-0.34363-0.87726-0.13498-0.20397-0.24542-0.37611-0.24542-0.38253 0-0.0064 0.11601-0.18526 0.25779-0.3974 0.29943-0.44802 0.36079-0.61246 0.33812-0.90621-0.02215-0.28713-0.10372-0.4593-0.31845-0.67224-0.24597-0.24392-0.39777-0.30593-0.74885-0.30593s-0.50288 0.06202-0.74885 0.30593c-0.21032 0.20856-0.29565 0.38421-0.31659 0.65169-0.0067 0.0857 0.01813 0.44071 0.05521 0.78892s0.06743 0.64913 0.06743 0.66871c0 0.02997-0.52616 0.0356-3.3259 0.0356-2.7997 0-3.3259-0.0057-3.3259-0.0356 0-0.01958 0.030341-0.3205 0.067425-0.66871 0.037083-0.34821 0.061954-0.70322 0.055212-0.78892-0.020976-0.26748-0.10628-0.44314-0.31659-0.65169-0.24598-0.24392-0.39777-0.30593-0.74885-0.30593s-0.50288 0.06202-0.74885 0.30593c-0.21474 0.21294-0.2963 0.38512-0.31845 0.67224-0.022624 0.29375 0.038656 0.45818 0.33812 0.90621 0.14179 0.21215 0.25779 0.39098 0.25779 0.3974 0 0.0064-0.11043 0.17856-0.24542 0.38253-0.30847 0.46612-0.34387 0.55652-0.34362 0.87725 1.948e-4 0.22303 0.00816 0.26347 0.083411 0.42131 0.16903 0.35465 0.42039 0.53738 0.9048 0.65775l0.28051 0.06971 0.15543 0.26369c0.15018 0.2548 0.35384 0.48309 0.50119 0.56182 0.2458 0.13133 0.57125 0.16093 0.84558 0.07691zm4.5826-4.6676c0.071994-1.1556 0.98184-2.0424 2.1573-2.1026l0.29268-0.01498 0.01527-0.11959c0.0083-0.06578 0.05745-0.53445 0.10901-1.0415 0.06954-0.68393 0.09014-0.98894 0.07979-1.1816-0.03602-0.66994-0.38976-1.3099-0.85388-1.5446-0.27118-0.13719-0.10681-0.13187-3.8394-0.12434l-3.4551 7e-3 -0.14403 0.05812c-0.40563 0.16368-0.75313 0.60827-0.8924 1.1418-0.092828 0.35558-0.090843 0.62358 0.012661 1.7075 0.051767 0.54211 0.094109 1.0107 0.094109 1.0413 0 0.05205 0.016631 0.0567 0.25534 0.07132 1.1411 0.06988 2.0448 0.96049 2.1197 2.089l0.015957 0.24 1.4822 0.0069c0.81523 0.0038 1.7191 0.0097 2.0086 0.01319l0.52635 0.0062z" stroke-width=".026078"/>
 <path d="m-7.8984 33.243c-0.00495-0.22732-0.00332-0.56228-0.00332-1.0747v-1.3448l-0.21732-0.12157c-0.34052-0.19049-0.58736-0.38874-0.85127-0.68371-0.49005-0.54771-0.79119-1.2144-0.89451-1.9805-0.056059-0.41561-0.056059-3.6368 0-4.0525 0.10332-0.76601 0.40446-1.4327 0.89451-1.9805 0.4881-0.54553 1.0893-0.88475 1.772-0.99977 0.38151-0.06428 7.2757-0.06428 7.6572 0 0.68263 0.11502 1.2839 0.45424 1.772 0.99977 0.49005 0.54771 0.79119 1.2144 0.89451 1.9805 0.05606 0.41562 0.05606 3.6368 0 4.0525-0.10332 0.76601-0.40446 1.4327-0.89451 1.9805-0.36975 0.41326-0.80018 0.70674-1.2849 0.87612-0.46614 0.16288-0.54109 0.16686-3.1657 0.1683l-2.0161 0.0011c-0.29856 0.0036-0.47916 0.11955-0.63685 0.32372-0.20422 0.25973-0.57661 0.72399-0.98529 1.2273-0.4464 0.5498-0.73162 0.89573-0.91323 1.1048-0.24186 0.27335-1.0939 0.22099-1.1271-0.4766zm1.6654-2.1964c0.31776-0.41356 0.54653-0.67622 0.77173-0.86276 0.43908-0.36158 0.93677-0.46892 1.4279-0.47106l3.8467-0.02368c0.62258 0.0011 1.1638-0.20541 1.5542-0.63571 0.24221-0.27071 0.38348-0.52464 0.49499-0.88971 0.053118-0.16959 0.07081-0.32293 0.07081-0.50347v-3.2721c1.74e-4 -0.19451-0.015982-0.34912-0.07081-0.52864-0.11151-0.36507-0.25279-0.619-0.49499-0.88971-0.22162-0.2477-0.43068-0.40096-0.71485-0.5207-0.18418-0.07904-0.34503-0.11169-0.55921-0.11169h-6.8656c-0.15118 2.36e-4 -0.35732 0.0099-0.53882 0.07915-0.32663 0.12463-0.55383 0.28253-0.79604 0.55324s-0.38348 0.52464-0.49499 0.88971c-0.048305 0.19104-0.070816 0.36948-0.070816 0.57204v3.0931c0.00691 0.25322-5.025e-4 0.40838 0.070816 0.63906 0.13782 0.3667 0.25279 0.619 0.49499 0.88971 0.24228 0.27078 0.47972 0.38372 0.78555 0.54592 0.23939 0.12697 0.47293 0.25415 0.54064 0.41595 0.095867 0.23354 0.084046 0.23564 0.091284 0.87601l0.00815 0.72165 0.14287-0.17732c0.078578-0.09752 0.21606-0.27258 0.30552-0.389z" stroke-width=".028604"/>
 <text x="-11.310795" y="-6.9452248" fill="#000000" font-family="sans-serif" font-size="10.583px" stroke-width=".26458" style="line-height:1.25" xml:space="preserve"><tspan x="-11.310795" y="-6.9452248" font-family="'Times New Roman'" stroke-width=".26458">?</tspan></text>
 <rect transform="matrix(-.004238 .99999 -1 -.00089992 0 0)" x="-4.9569" y="-13.179" width="1.318" height="7.6298" rx=".66145" ry=".59409" stroke="#a3f1fd" stroke-width=".0026068" style="paint-order:stroke fill markers"/>
 <rect transform="matrix(-.0041341 .99999 -1 -.00092254 0 0)" x="-4.117" y="-23.698" width="1.318" height="7.4428" rx=".66145" ry=".57952" stroke="#a3f1fd" stroke-width=".0025747" style="paint-order:stroke fill markers"/>
 <path d="m-4.1542 26.17c0.22926-0.55728 0.99836-0.67932 1.2629-1.0779 0.52557-0.8385-0.67691-1.4296-1.1478-0.84089-0.39533 0.55136-1.1478-0.03004-0.85178-0.52456 0.35466-0.55296 0.88543-0.7339 1.3782-0.74054 0.96163-0.0042 1.7828 0.5967 1.7804 1.8043 0.012768 1.0762-0.95124 1.5712-1.6971 2.0589-0.42009 0.25147-0.90591-0.13251-0.7249-0.67934z" stroke-width=".023164"/>
 <ellipse cx="-2.0271" cy="27.866" rx=".5073" ry=".53045" stroke="#a3f1fd" stroke-width=".00034958" style="paint-order:stroke fill markers"/>
 <path d="m5.2717 28.028c-0.16303-0.082083-0.27971-0.2366-0.36219-0.47973-0.15964-0.47057-0.47858-1.0146-0.88256-1.5054-0.33022-0.40116-0.59434-0.64607-0.89993-0.83449-0.82482-0.50856-1.3304-1.278-1.4482-2.2039-0.04431-0.34811 0.033364-0.98344 0.16018-1.3102 0.1855-0.47792 0.5048-0.9181 0.91292-1.2585l0.20655-0.1723-0.00613-0.15642c-0.015355-0.39176 0.14961-0.91112 0.40055-1.261 0.080165-0.11178 0.64246-0.72287 1.2495-1.3579 0.84714-0.88623 1.1738-1.2085 1.4051-1.386 0.64615-0.49593 1.3858-0.73268 2.0336-0.65087 0.36059 0.04554 0.768 0.27093 0.97499 0.5394 0.095296 0.12359 3.5137 6.044 3.6862 6.3844 0.31934 0.6298 0.04712 1.3715-0.70534 1.9217-0.57812 0.42276-0.87046 0.51336-2.8604 0.88648-0.8568 0.16065-1.6687 0.2972-1.8043 0.30345-0.30713 0.01415-0.69536-0.053206-1.0039-0.17419l-0.22346-0.08761-0.23228 0.11155c-0.12775 0.06134-0.31216 0.13116-0.40978 0.15512-0.097631 0.02396-0.17843 0.05109-0.17955 0.06028-0.00111 0.0091 0.054865 0.09904 0.12442 0.19966 0.17574 0.25423 0.37818 0.60992 0.5235 0.91977 0.11541 0.2461 0.21202 0.48179 0.21052 0.51363-3.601e-4 0.0077 0.00967 0.05356 0.022272 0.10183 0.070248 0.26887-0.00783 0.50046-0.22453 0.66602-0.20712 0.15826-0.44865 0.18547-0.66763 0.075248zm-0.46267-3.6969c0.12238-0.01506 0.25566-0.0398 0.29617-0.05496 0.07333-0.02744 0.069711-0.03407-0.75971-1.3912-0.45837-0.74997-0.84893-1.3656-0.86793-1.3679-0.019-0.0024-0.094432 0.07079-0.16763 0.16258-0.48157 0.60396-0.4819 1.4204-8.457e-4 2.0237 0.37417 0.46919 0.92289 0.69886 1.4999 0.62781zm4.1052-0.39217c1.6282-0.30648 1.8657-0.36813 2.1979-0.57059 0.20032-0.12207 0.44041-0.3636 0.43074-0.43332-0.0074-0.05367-3.4856-6.1238-3.5413-6.1803-0.096367-0.09786-0.42797-0.06649-0.74838 0.0708-0.36652 0.15704-0.58548 0.35293-1.7166 1.5358-0.59297 0.62004-1.117 1.1862-1.1646 1.2582-0.11777 0.17816-0.16702 0.52401-0.097047 0.68134 0.048286 0.10858 2.0722 3.4374 2.1851 3.5941 0.13371 0.18542 0.36146 0.29208 0.68203 0.31942 0.18662 0.01591 0.40818-0.0185 1.7721-0.27524zm4.6335-1.9256c-0.14459-0.07415-0.22531-0.15442-0.30892-0.30725-0.06543-0.11958-0.06827-0.14604-0.03997-0.37025 0.01714-0.13573 0.06577-0.3362 0.11107-0.45782 0.11353-0.30474 0.2066-1.0378 0.17504-1.379-0.06618-0.71658-0.32134-1.3726-0.74724-1.9208-0.5935-0.76407-1.3864-1.23-2.3753-1.3958-0.31844-0.05337-0.43292-0.10213-0.56191-0.23931-0.25539-0.2716-0.1878-0.76309 0.13262-0.96448 0.18424-0.1158 0.37998-0.13216 0.75348-0.06299 0.89117 0.16505 1.7393 0.56468 2.3899 1.126 0.13932 0.12022 0.28774 0.25417 0.32983 0.29766 0.15035 0.15539 0.54471 0.65956 0.65742 0.84049 0.44714 0.71784 0.70635 1.5541 0.74365 2.3992 0.01487 0.33675 7e-3 0.44876-0.06391 0.91182-0.05561 0.36315-0.10835 0.6084-0.16899 0.78577-0.04847 0.14182-0.10136 0.30171-0.11748 0.35532-0.04438 0.14736-0.20823 0.32548-0.35736 0.38848-0.16781 0.07088-0.40594 0.06782-0.55203-0.0071z" stroke-width=".028302"/>
 <path d="m-8.1442 21.589c-0.49489-0.16238-0.66474-0.75246-0.32489-1.1286 0.14895-0.16487 0.27685-0.21982 0.51168-0.21982 0.22718 0 0.35516 0.05229 0.4969 0.20304 0.14278 0.15187 0.18188 0.25409 0.18188 0.47556 0 0.1427-0.014061 0.22667-0.049111 0.29326-0.069154 0.13139-0.19829 0.26193-0.32229 0.3258-0.11492 0.05919-0.38421 0.08687-0.49417 0.05079zm-0.14646-2.2795c-0.26138-0.12326-0.35845-0.30552-0.35933-0.6747-0.0018-0.75651 0.37683-1.4444 1.0258-1.8638 0.26201-0.16929 0.58187-0.29028 0.98201-0.37147 1.41-0.28609 2.4796-1.4601 2.6591-2.9186 0.19525-1.5865-0.83029-3.144-2.3762-3.6086-0.36099-0.1085-0.54656-0.13416-0.97171-0.13442-0.72267-4.338e-4 -1.2545 0.15904-1.8796 0.56361-0.48742 0.31548-1.0333 0.97554-1.2272 1.4838-0.09543 0.25021-0.17397 0.34476-0.35913 0.43229-0.5021 0.23737-1.0163-0.22489-0.86327-0.77608 0.10564-0.38051 0.5513-1.0888 0.94682-1.5048 0.88828-0.93421 1.9554-1.4174 3.2223-1.4592 0.6997-0.023051 1.2787 0.075644 1.8824 0.32087 1.5835 0.64325 2.6712 2.0631 2.8781 3.7567 0.04569 0.37406 0.01963 1.0773-0.05344 1.4423-0.33174 1.6573-1.5352 3.0075-3.1341 3.5163-0.16129 0.05133-0.42988 0.12669-0.59685 0.16748-0.23125 0.05649-0.34006 0.09851-0.45669 0.17639-0.27175 0.18147-0.42583 0.48748-0.42637 0.84676-2.896e-4 0.19444-0.076917 0.39666-0.1895 0.50005-0.18441 0.16936-0.47482 0.21268-0.70336 0.1049z" stroke-width=".02666"/>
 <path d="m30.76 11.923c-0.52149-0.10357-0.93686-0.46967-1.1151-0.98285-0.06088-0.17525-0.06985-0.23923-0.07051-0.50337-5.97e-4 -0.24728 0.01-0.33717 0.05793-0.49172 0.2204-0.71021 0.86134-1.4249 1.7172-1.9148 1.7067-0.97688 3.9058-0.79673 5.4281 0.44469 0.22624 0.18449 0.57151 0.55001 0.72985 0.77264 0.1571 0.22089 0.33076 0.57875 0.38669 0.79687 0.22689 0.88482-0.21549 1.7494-0.96815 1.8921-0.0879 0.01667-1.1675 0.0249-3.0637 0.02337-2.3739-0.0019-2.961-0.0089-3.1023-0.037zm6.0032-1.1607c0.11556-0.17637 0.0556-0.50353-0.1481-0.80808-0.4337-0.64843-1.2411-1.152-2.163-1.3489-0.37726-0.080594-1.0578-0.081288-1.4285-0.00146-0.73102 0.15743-1.3243 0.46603-1.8027 0.93775-0.43542 0.42932-0.60538 0.79782-0.49177 1.0662 0.04194 0.09909 0.11319 0.16525 0.20881 0.19391 0.03963 0.01187 1.3569 0.02257 2.9272 0.02376l2.8552 0.0022 0.04283-0.06537zm-3.3324-3.9298c-0.46314-0.092054-0.8536-0.30337-1.1754-0.63614-0.25307-0.26168-0.41176-0.52476-0.52233-0.86589-0.32659-1.0076 0.14657-2.1251 1.1052-2.61 0.85555-0.43284 1.8808-0.25876 2.5497 0.4329 0.20323 0.21015 0.30075 0.35266 0.42559 0.62196 0.14896 0.32132 0.18739 0.50582 0.18739 0.89955s-0.03843 0.57823-0.18739 0.89955c-0.12484 0.2693-0.22236 0.41181-0.42559 0.62196-0.27628 0.28568-0.66155 0.51153-1.0367 0.60773-0.22617 0.057994-0.69824 0.072565-0.9204 0.02841zm0.76202-1.1689c0.49737-0.19004 0.78251-0.73223 0.65227-1.2403-0.20505-0.79985-1.1857-1.0728-1.7668-0.49179-0.68077 0.68077-0.166 1.8431 0.79377 1.7924 0.10432-0.00552 0.24814-0.032556 0.32073-0.060292z" fill="#2f3a73" stroke-width=".025216"/>
 <path d="m6.3197 10.804c-0.44489-0.098389-0.96241-0.3951-2.0967-1.2021-0.70602-0.5023-1.3801-1.1806-1.8019-1.8131-0.29911-0.44853-0.51629-0.9574-0.59383-1.3915-0.052032-0.29127-0.054224-0.97604-0.0040045-1.2439 0.14295-0.76223 0.49498-1.3701 1.0368-1.7902 0.47742-0.3702 0.91891-0.53329 1.501-0.55445 0.66318-0.024109 1.1053 0.05875 1.6002 0.29988 0.57765 0.29103 0.87835 0.17662 1.2966-0.020134 0.49404-0.23319 0.72764-0.29789 1.1573-0.32053 0.7435-0.039186 1.5551 0.27164 2.1135 0.80942 0.42258 0.407 0.69135 0.92772 0.81347 1.576 0.14025 0.97682-0.09181 1.7887-0.5583 2.5089-0.46929 0.71609-1.0487 1.2891-2.1977 2.1732-1.09 0.83869-1.6913 1.0957-2.2664 0.96854zm0.64939-1.0282c0.67149-0.32673 2.1077-1.4894 2.6758-2.1662 0.58315-0.74622 0.93687-1.4236 0.74745-2.382-0.13353-0.61978-0.48492-1.0625-1.0553-1.3297-0.65802-0.28761-1.1972-0.17515-1.6786 0.051931-0.82663 0.38251-1.3987 0.34751-2.0662 0.0338-0.58411-0.24857-1.2642-0.33041-1.7841-0.095456-0.73558 0.33756-1.1191 1.0554-1.0762 2.0139 0.25791 1.7371 1.8094 2.9841 3.4189 3.8317 0.37064 0.18826 0.50369 0.19512 0.81806 0.042164z" display="none" fill="#2f3a73" stroke-width=".021083"/>
</svg>
