<?xml version="1.0" encoding="UTF-8"?>
<svg width="50" height="50" version="1.1" viewBox="0 0 13.229 13.229" xmlns="http://www.w3.org/2000/svg">
 <path d="m-9.0437 11.732-0.79933-0.40344v-2.9137l-0.7059-0.45156c-0.38824-0.24836-0.73356-0.45156-0.76736-0.45156-0.03381 0-0.06146 0.63307-0.06146 1.4068 0 0.77376-0.04678 1.4068-0.10397 1.4068-0.14042 0-0.72571-0.6366-0.90355-0.98276-0.08737-0.17007-0.14352-1.0326-0.14352-2.2049v-1.9255l2.2894-1.1498 1.426 2.3729c0.81407 1.3546 1.4899 2.3484 1.575 2.3157 0.081948-0.031431 1.4337-0.78193 3.0039-1.6677l2.8549-1.6106-0.04319 1.3816c-0.0585 1.871-0.06385 1.8771-3.2323 3.7112-2.9702 1.7193-3.1818 1.7755-4.3886 1.1664zm0.41655-6.2592-1.386-2.305-1.4744 0.76514c-0.81092 0.42083-1.5188 0.76514-1.573 0.76514-0.05426 0-0.16316-0.12054-0.242-0.26785-0.11817-0.22079-0.09427-0.3201 0.13603-0.56524 0.15366-0.16356 0.44635-0.36655 0.65043-0.45108 0.35062-0.14523 0.37105-0.19555 0.37105-0.91395 0-0.41814-0.04904-0.75228 0.13217-1.0072 0.30899-0.4347 1.0319-0.75937 1.4678-0.75937 0.4634 0 0.95983 0.38826 1.1523 0.64731 0.23979 0.27398 0.31899 0.15839 0.47017 0.073525 0.65449-0.41332 3.0035-1.8697 4.2913-2.3112 0.54685-0.22512 0.69587-0.083113 0.93662 0.29956 0.69208 1.1012 2.3924 3.9469 2.463 4.1435 0.04563 0.12703 0.0057 0.41479-0.08879 0.63947-0.14556 0.3462-0.58726 0.6426-2.8958 1.9432-1.4982 0.8441-2.7917 1.5514-2.8744 1.5718-0.082694 0.0204-0.77406-1.0001-1.5364-2.2679z" stroke-width=".12789"/>
 <path d="m28.636 12.661c-0.2395-0.03419-0.57959-0.14723-0.82876-0.27548-0.64828-0.33368-1.1358-0.94894-1.3328-1.682-0.07047-0.26228-0.07052-0.26298-0.08108-1.4197l-0.010582-1.1573-0.15059-0.15782c-0.21519-0.22552-0.35249-0.41676-0.47221-0.65771-0.38564-0.7761-0.34659-1.6644 0.10591-2.4096 0.11958-0.19693 0.36734-0.45455 2.32-2.4123 1.2023-1.2055 2.2589-2.2444 2.348-2.3086 0.61223-0.4415 1.4362-0.56778 2.1784-0.33386 0.46539 0.14668 0.65351 0.27791 1.2688 0.88512l0.5054 0.49877 0.11437-0.10541c0.13979-0.12885 0.30104-0.22315 0.49243-0.28797 0.11495-0.03893 0.22029-0.04871 0.5129-0.04759 0.32192 0.0012 0.38808 0.0091 0.52605 0.0631 0.34408 0.13455 0.60674 0.36976 0.74626 0.66827 0.12985 0.27784 0.13694 0.348 0.13384 1.3241l-0.0029 0.90833 0.457 0.4638c0.48289 0.49008 0.60954 0.65554 0.74938 0.97897 0.15588 0.36056 0.19932 0.57307 0.20114 0.98406 0.0012 0.29734-0.0097 0.41381-0.05729 0.60496-0.05646 0.22688-0.26536 0.69542-0.36744 0.82414l-0.04868 0.06137-0.10734-0.14218c-0.05906-0.07821-0.17836-0.21678-0.26512-0.30796l-0.15774-0.16577 0.06378-0.12697c0.22579-0.44954 0.21819-1.0115-0.02025-1.4972-0.1026-0.20904-0.14896-0.26316-0.7129-0.83247l-0.60316-0.6089 0.0428-0.20983c0.03532-0.17323 0.04146-0.35452 0.03515-1.0394l-0.0077-0.82954-0.07891-0.11166c-0.12375-0.17519-0.23932-0.22155-0.55228-0.22155-0.33765 0-0.36371 0.01596-0.74969 0.46038l-0.29795 0.343-0.79131-0.78427c-0.75141-0.74473-0.80258-0.78989-1.0149-0.89554-0.50124-0.24946-1.0159-0.25013-1.5255-2e-3l-0.22357 0.10886-2.1125 2.1076c-1.1619 1.1592-2.1668 2.1786-2.233 2.2654-0.41413 0.54229-0.45812 1.2934-0.11043 1.8855 0.05678 0.0967 0.22673 0.30468 0.37767 0.46219l0.27443 0.28639 0.0091 1.2869c0.0089 1.2624 0.01026 1.2904 0.06995 1.471 0.10951 0.33121 0.23402 0.5348 0.47585 0.77812 0.18775 0.18891 0.26516 0.24569 0.47419 0.34777 0.41823 0.20425 0.39492 0.20238 2.5246 0.20238h1.8693l0.23418 0.20667c0.24987 0.22052 0.44392 0.35836 0.69806 0.49584l0.15782 0.08537-2.4461-0.0026c-1.3454-0.0014-2.5171-0.01274-2.6039-0.02512zm6.0732-0.06197c-0.62292-0.09676-1.2014-0.39204-1.6533-0.84395-1.3873-1.3873-1.0897-3.7038 0.60375-4.7006 1.1682-0.68762 2.6661-0.49434 3.6287 0.46821 1.1724 1.1724 1.1724 3.0601 0 4.2324-0.6781 0.6781-1.6338 0.99081-2.5792 0.84395zm0.81978-0.7784c0.46773-0.08282 0.85728-0.28684 1.1977-0.62725 0.75155-0.75155 0.86958-1.882 0.28885-2.7666-0.46928-0.71482-1.3486-1.1048-2.1853-0.96924-0.47692 0.07726-0.85379 0.27334-1.2099 0.62946-0.17034 0.17034-0.28499 0.31266-0.3602 0.44714-0.39282 0.7024-0.39282 1.507 0 2.2094 0.14482 0.25896 0.51535 0.6358 0.77562 0.78884 0.45369 0.26677 1.009 0.37397 1.4933 0.28822zm-0.74117-0.89993c-0.19389-0.07691-0.27876-0.16611-0.56727-0.59618-0.25588-0.38144-0.2883-0.44227-0.27601-0.51797 0.0357-0.21998 0.36357-0.43551 0.55232-0.36308 0.02155 0.0083 0.13662 0.16214 0.25571 0.34193 0.11909 0.1798 0.22376 0.32661 0.23259 0.32624 0.0088-3.68e-4 0.24093-0.32669 0.51579-0.72516s0.51954-0.74242 0.54374-0.76434c0.18853-0.17077 0.62654 0.07562 0.59283 0.33348-0.01498 0.11416-1.0419 1.6846-1.1743 1.7958-0.20227 0.16979-0.49144 0.24228-0.6754 0.1693z" fill="#fff" stroke-width=".026302"/>
 <path d="m-3.9427 28.843c-0.24006-0.03427-0.58096-0.14758-0.83071-0.27613-0.64981-0.33446-1.1385-0.95118-1.3359-1.686-0.070644-0.2629-0.070685-0.2636-0.081271-1.4231l-0.010592-1.16-0.15094-0.15819c-0.69218-0.72543-0.91116-1.6651-0.59991-2.5741 0.18778-0.54846 0.10297-0.45173 2.5474-2.9053 1.2111-1.2156 2.2751-2.2629 2.3643-2.3272 0.61398-0.44253 1.4396-0.56904 2.1835-0.33459 0.47769 0.15055 0.65222 0.27523 1.3461 0.96159l0.58091 0.57462 0.11226-0.15416c0.31504-0.43262 0.91459-0.6025 1.4543-0.41208 0.40427 0.14264 0.70979 0.51321 0.79062 0.95896 0.01927 0.10627 0.02828 0.48961 0.02527 1.0748l-0.0046 0.90962 0.45932 0.46615c0.48525 0.49247 0.61217 0.65821 0.75239 0.98254 0.15625 0.36141 0.19979 0.57442 0.20162 0.98638 0.0014 0.29772-0.0097 0.41436-0.05701 0.60314-0.10752 0.42912-0.3215 0.81506-0.64593 1.1651l-0.17272 0.18634-0.01148 1.1582c-0.01231 1.243-0.01781 1.3001-0.16212 1.6835-0.34362 0.91292-1.1555 1.568-2.1073 1.7004-0.24867 0.03459-6.4049 0.03415-6.6474-4.78e-4zm6.7424-1.6655c0.29429-0.14545 0.47885-0.37162 0.56429-0.69148 0.02719-0.10178 0.03528-0.44096 0.03553-1.4885l3.09e-4 -1.3566 0.36794-0.37111c0.45375-0.45765 0.51526-0.56627 0.51526-0.90983 0-0.41104 0.12858-0.26025-2.2509-2.6395-2.3794-2.3792-2.2292-2.2511-2.6397-2.2511-0.42094 0-0.25779-0.13956-2.6427 2.2607-1.7166 1.7277-2.1156 2.1424-2.175 2.2608-0.063559 0.12665-0.072684 0.17504-0.072091 0.38228 9.648e-4 0.34101 0.054287 0.43386 0.51486 0.89672l0.36761 0.36943v1.3613c0 1.2813 0.00307 1.3712 0.052097 1.5299 0.11278 0.36514 0.40515 0.6471 0.7582 0.73121 0.056242 0.01341 1.4656 0.02183 3.2512 0.01945l3.1519-0.0042zm-5.0418-0.53573c-0.44234-0.1175-0.79013-0.44365-0.93921-0.88076-0.045242-0.13264-0.049456-0.23826-0.049456-1.2391 0-1.0009 0.00419-1.1065 0.049456-1.2391 0.15104-0.44286 0.49979-0.76633 0.95134-0.88237 0.1319-0.0339 0.39246-0.04038 1.6225-0.04038 1.23 0 1.4906 0.0065 1.6225 0.04038 0.45155 0.11604 0.8003 0.43951 0.95134 0.88237 0.045244 0.13264 0.049454 0.23826 0.049454 1.2391 0 1.0009-0.0042 1.1065-0.049454 1.2391-0.15104 0.44286-0.49979 0.76633-0.95134 0.88237-0.22697 0.05832-3.0367 0.05694-3.2571-0.0016zm2.6892-2.1199v-0.58002h-2.1092v1.16h2.1092z" stroke-width=".026364"/>
 <path d="m-10.828 24.017c-0.2416-0.03449-0.58467-0.14852-0.83603-0.2779-0.65397-0.3366-1.1458-0.95727-1.3445-1.6968-0.0711-0.26458-0.07114-0.26528-0.08179-1.4322l-0.01066-1.1675-0.1519-0.1592c-0.69661-0.73007-0.91699-1.6757-0.60375-2.5906 0.18899-0.55197 0.10363-0.45462 2.5637-2.9239 1.2189-1.2234 2.2896-2.2774 2.3795-2.3421 0.61791-0.44536 1.4488-0.57268 2.1975-0.33673 0.48075 0.15152 0.6564 0.27699 1.3547 0.96775l0.58463 0.5783 0.11298-0.15514c0.31706-0.43539 0.92044-0.60636 1.4636-0.41472 0.40686 0.14355 0.71434 0.51649 0.79568 0.9651 0.0194 0.10695 0.02846 0.49275 0.02543 1.0817l-0.0047 0.91544 0.46226 0.46913c0.48836 0.49562 0.61609 0.66242 0.7572 0.98883 0.15725 0.36372 0.20107 0.5781 0.20291 0.9927 0.0013 0.29962-0.0098 0.41702-0.05737 0.607-0.10821 0.43186-0.32356 0.82028-0.65006 1.1725l-0.17383 0.18753-0.01155 1.1657c-0.01239 1.2509-0.01793 1.3084-0.16316 1.6942-0.34582 0.91876-1.1629 1.5781-2.1208 1.7113-0.25026 0.03481-6.4459 0.03436-6.69-4.81e-4zm6.7855-1.6762c0.29617-0.14638 0.48192-0.374 0.5679-0.6959 0.02736-0.10244 0.03551-0.44378 0.03575-1.498l3.11e-4 -1.3653 0.3703-0.37348c0.45666-0.46058 0.51856-0.56989 0.51856-0.91565 0-0.41367 0.1294-0.26192-2.2653-2.6564-2.3946-2.3944-2.2434-2.2655-2.6566-2.2655-0.42363 0-0.25944-0.14046-2.6596 2.2752-1.7276 1.7387-2.1292 2.1561-2.189 2.2753-0.06397 0.12746-0.07315 0.17616-0.07255 0.38473 9.83e-4 0.3432 0.05463 0.43664 0.51815 0.90246l0.36996 0.3718v1.37c0 1.2895 0.0031 1.3799 0.05243 1.5397 0.1135 0.36748 0.40774 0.65124 0.76305 0.73589 0.0566 0.01349 1.4749 0.02197 3.272 0.01957l3.1721-0.0042z" stroke-width=".026533"/>
 <path d="m3.3585 13.018c-0.2368-0.033799-0.57306-0.14557-0.81942-0.27238-0.64098-0.32991-1.123-0.93825-1.3178-1.6631-0.069707-0.25932-0.069707-0.26001-0.080163-1.4037l-0.010481-1.1443-0.14888-0.15604c-0.21274-0.22298-0.34849-0.41206-0.46686-0.6503-0.3813-0.76736-0.34269-1.6457 0.10473-2.3825 0.11824-0.19471 0.3632-0.44942 2.2938-2.3851 1.1888-1.1919 2.2335-2.2191 2.3215-2.2826 0.60532-0.43652 1.42-0.56138 2.1538-0.3301 0.46015 0.14502 0.64615 0.27478 1.2545 0.87514l0.49971 0.49315 0.11308-0.10423c0.13821-0.1274 0.29765-0.22063 0.48688-0.28473 0.11365-0.038493 0.21781-0.04816 0.50712-0.04706 0.31829 0.00122 0.3837 0.00906 0.52011 0.06239 0.3402 0.13302 0.59991 0.36559 0.73785 0.66074 0.12839 0.2747 0.1354 0.34408 0.13233 1.3091l-0.0032 0.89809 0.45185 0.45857c0.47744 0.48456 0.60267 0.64815 0.74093 0.96794 0.1564 0.36174 0.19755 0.56561 0.19908 0.98597 0.0016 0.31372-0.0087 0.41423-0.05802 0.59814-0.11375 0.42359-0.32186 0.79457-0.63559 1.133l-0.17038 0.1838-0.01128 1.1425c-0.01216 1.2261-0.01755 1.2824-0.15992 1.6606-0.33895 0.90051-1.1398 1.5467-2.0786 1.6773-0.24529 0.03413-6.3178 0.03369-6.557-4.73e-4zm6.6804-1.2242c0.45752-0.17776 0.7832-0.53869 0.90072-0.99822 0.0481-0.1879 0.0516-0.29014 0.0516-1.4766v-1.2747l0.33194-0.34001c0.1903-0.19492 0.36201-0.39646 0.40241-0.47229 0.14119-0.26506 0.18465-0.62041 0.11064-0.90455-0.086803-0.33327-0.14021-0.40425-0.82814-1.1007l-0.64718-0.65518 0.05534-0.29403c0.04825-0.25629 0.05536-0.3881 0.05512-1.0268-2.74e-4 -0.8503 0.01004-0.81454-0.23761-0.81454-0.18002 0-0.11386-0.057267-0.66735 0.57766l-0.3562 0.40862-0.89738-0.89226c-0.81476-0.81014-0.91468-0.90083-1.0856-0.98534-0.23619-0.11681-0.43686-0.15923-0.67003-0.14164-0.22385 0.016888-0.43347 0.088281-0.61573 0.2097-0.076112 0.050702-1.0694 1.0261-2.2073 2.1676-2.2248 2.2318-2.1782 2.1797-2.2733 2.5446-0.076268 0.29282-0.038406 0.61536 0.10611 0.90306 0.044668 0.088904 0.18449 0.25373 0.40331 0.47536l0.33496 0.33927 3.974e-4 1.2731c3.894e-4 1.399 0.00608 1.4589 0.15881 1.7697 0.1911 0.38819 0.60863 0.69942 1.0371 0.77305 0.035728 0.0061 1.481 0.0097 3.2117 0.0079l3.1467-0.0033z" fill="#22273d" stroke-width=".026006"/>
</svg>
