<?xml version="1.0" encoding="UTF-8"?>
<svg width="80" height="50" version="1.1" viewBox="0 0 21.166 13.229" xmlns="http://www.w3.org/2000/svg">
 <g transform="matrix(.21125 0 0 .21905 -10.482 -18.101)">
  <path d="m52.884 122.84 0.01158-2.3034h10.86l0.01761-1.7609-9.9698 0.01 19.355-14.071 12.307 8.569 14.641-9.4419 14.465 9.0782 12.215-8.1435 19.324 14.009-9.5192-0.01-9e-3 1.7609h11.061l-4.9e-4 2.4374-22.513-4.6e-4 -24.978-16.168s-24.542 16.063-24.941 16.169h-22.316zm30.989-8.5268-10.751-7.2541-13.165 9.8018h5.5308v3.6757h8.8753zm-12.732 3.6144 1.09e-4 -1.478h1.9818v1.481zm2.5917-1.478 1.9769-7e-3v1.4833h-1.977zm-2.5916-2.1371s1.9817 5.6e-4 1.9818-2e-3v1.4811h-1.9818zm2.5916-2e-3 1.9769 4e-3 0.0056 1.4781h-1.9818zm61.176 6.2201 0.0151-3.6697h5.6232l-13.759-10.017-10.404 7.3737 9.7858 6.3188s6.7845-8e-3 8.7395-7e-3zm-10.259-3.664h1.9819v1.481l-1.9775-8e-3zm2.5913 0h1.9993l-0.0146 1.4781h-1.9864zm-2.5948-2.142 1.9851 3e-3v1.481h-1.9819zm2.5948 3e-3 1.9966-2e-3s-0.0111 5e-3 -0.0111 1.4877l-9e-3 -7e-3h-1.9818zm-30.806 6.4873-0.0043-2.4285h3.3539l0.0043 2.4331zm4.1283-2.4287 3.3404-4e-3 -2e-3 2.4381s-3.3394-4e-5 -3.3394 2e-3zm-4.1303-3.3142h3.3537v2.456h-3.3537zm4.1303-9e-3 3.3394 9e-3v2.456l-3.3394 4e-3zm32.603-6.5317 6.1e-4 -0.87317h5.2024v4.6066zm-71.171 1.2634-0.0057-2.2473 5.1705 1.6e-4 0.0051 0.75748c-1.7119 1.2828-5.1741 3.7088-5.1741 3.7088zm14.793-3.4701 14.496 2.2326-5.8083 3.7075zm32.224 2.2441 14.836-2.647-9.2461 6.1407zm-19.959-0.84245v-14.163l5.969 3.2473v9.3534l-3.2111 2.0299zm13.771-3.105v-17.066l7.4705 4.2732-5e-3 16.093-1.7164 0.28798zm-18.952 2.2805v-9.865l4.7232-3.4758v14.084zm28.581-3.6874h7.7747c0 1.0372 0.0123 2.9039 0.0123 2.9039l-7.7854 1.4281c0-1.4896 7e-5 -2.8422 7e-5 -4.332zm20.713 3.9997c0-2.8379 5.2022-2.8379 5.2022 2e-3zm-71.176 0c0-2.8379 5.1741-2.8379 5.1741 0zm34.151-14.019 6.2454-5.6433 0.0101 16.825-2.3231-1.4825-3.9414 2.5689zm16.311 9.5551c-9e-5 -3.8978 7.7795-3.8978 7.7747 0z" fill="#214478" stroke-width=".15838"/>
  <text transform="scale(1.0169 .98334)" x="50.645576" y="137.83672" fill="#000000" font-family="sans-serif" font-size="13.138px" letter-spacing=".032846px" stroke-width=".32846" style="line-height:1.25" xml:space="preserve"><tspan x="50.645576" y="137.83672" fill="#214478" font-family="Montserrat" font-weight="bold" stroke-width=".32846">SULTAN_2699</tspan></text>
 </g>
</svg>
