<?xml version="1.0" encoding="UTF-8"?>
<!-- Created with Inkscape (http://www.inkscape.org/) -->
<svg width="50" height="50" version="1.1" viewBox="0 0 13.229 13.229" xmlns="http://www.w3.org/2000/svg">
 <g>
  <path d="m5.3081 27.095c-0.00364-0.0035-0.16292-0.01111-0.35397-0.01665-0.56103-0.01622-1.1454-0.04417-1.164-0.05565-0.00528-0.0033-0.076329-0.01-0.15787-0.01486-0.29641-0.01784-0.4154-0.02741-0.42655-0.03431-0.00626-4e-3 -0.066829-0.01145-0.13459-0.01688-0.067766-0.0054-0.1619-0.01389-0.20919-0.01884-0.047288-5e-3 -0.12988-0.01315-0.18353-0.01823-0.053655-0.0051-0.10281-0.01247-0.10924-0.01646-0.00643-0.0041-0.051289-0.01171-0.099691-0.01715-0.0484-0.0054-0.11759-0.01386-0.15375-0.01868-0.036162-0.0049-0.10749-0.0131-0.15851-0.01842-0.05102-0.0053-0.097225-0.01247-0.10268-0.01579-0.00545-0.0033-0.052471-0.01122-0.10448-0.0174-0.05201-0.0062-0.12415-0.01496-0.16031-0.01949-0.036162-0.0045-0.10038-0.01247-0.1427-0.0176-0.042326-0.0052-0.081353-0.01209-0.086726-0.01544-0.00537-0.0033-0.045847-0.01122-0.089943-0.01752-0.044097-0.0062-0.10521-0.01549-0.13581-0.0204-0.030597-0.0049-0.080668-0.01292-0.11127-0.01782-0.030597-0.0049-0.078392-0.01444-0.10621-0.02121-0.027816-0.0067-0.068783-0.01631-0.091036-0.02123-0.022254-0.0049-0.07915-0.01793-0.12644-0.02891-0.047288-0.01099-0.12012-0.02766-0.16184-0.03704-0.25992-0.05848-0.47909-0.18552-0.54206-0.31421-0.026951-0.05509-0.027337-0.05859-0.021458-0.19604 0.00562-0.13163 0.011244-0.17798 0.038033-0.31385 0.00603-0.0306 0.014548-0.0784 0.018924-0.10621 0.00948-0.06029 0.00609-0.04593 0.12109-0.51082 0.00483-0.01947 0.015956-0.05189 0.024751-0.07205 0.0088-0.02015 0.012892-0.03974 0.0091-0.04354-0.0038-0.0038-0.00218-0.01009 0.00356-0.01393 0.00574-0.0039 0.022925-0.04345 0.038188-0.08796s0.033995-0.09458 0.041626-0.11127c0.00764-0.01669 0.020458-0.04628 0.0285-0.06575 0.042768-0.10348 0.058345-0.13697 0.12219-0.26262 0.074796-0.1472 0.087736-0.17104 0.11824-0.21784 0.010881-0.01669 0.022537-0.03831 0.0259-0.04805 0.00338-0.0098 0.010144-0.0177 0.015055-0.0177 0.00491 0 0.00893-0.0046 0.00893-0.0102s0.01593-0.03289 0.035403-0.06058c0.019473-0.02771 0.035403-0.05269 0.035403-0.05553 0-0.0028 0.00797-0.01351 0.017701-0.02372 0.00974-0.0102 0.024529-0.02893 0.032876-0.0416 0.016956-0.02576 0.055858-0.07664 0.1043-0.13643 0.047123-0.05814 0.19411-0.20167 0.26996-0.26359 0.11339-0.09256 0.29962-0.19901 0.49564-0.28332 0.041725-0.01794 0.096348-0.04207 0.12138-0.05362 0.025038-0.01154 0.12973-0.05581 0.23265-0.09837 0.22299-0.09221 0.25252-0.10474 0.2755-0.11685 0.00966-0.0051 0.022055-0.0092 0.02754-0.0092 0.0055 0 0.036272-0.01192 0.068413-0.0265 0.094068-0.04266 0.1218-0.05442 0.12836-0.05442 0.00664 0 0.090783-0.03616 0.1196-0.0514 0.00966-0.0051 0.022876-0.0093 0.029371-0.0093 0.00649 0 0.036752-0.01181 0.067245-0.02622 0.037418-0.0177 0.061062-0.02345 0.072734-0.0177 0.00952 0.0047 0.053843 0.04949 0.098511 0.09956 0.078185 0.08764 0.2803 0.28183 0.33688 0.32369 0.015041 0.01112 0.079183 0.05933 0.14253 0.1071 0.16587 0.12511 0.49923 0.32278 0.54435 0.32278 0.00611 0 0.019019 4e-3 0.028682 9e-3 0.00966 5e-3 0.035773 0.017 0.058025 0.02678 0.022254 0.0098 0.048365 0.02166 0.058024 0.02641 0.00966 0.0048 0.024514 0.0087 0.033014 0.0087s0.02335 0.0041 0.033014 0.0091c0.02721 0.01407 0.093798 0.03803 0.144 0.05185 0.025038 0.0068 0.070553 0.0214 0.10115 0.03225 0.030597 0.01086 0.069288 0.02336 0.085979 0.02778 0.01669 0.0045 0.050828 0.01564 0.075863 0.02492 0.025038 0.0092 0.067361 0.02425 0.094059 0.03328 0.034125 0.01154 0.05804 0.02869 0.080528 0.05772 0.017594 0.02271 0.044681 0.05468 0.060197 0.07102 0.015515 0.01636 0.028211 0.03334 0.028211 0.03774 0 0.01911 0.19669 0.15345 0.28385 0.19387 0.20038 0.09292 0.45071 0.13838 0.64675 0.11746 0.047288-5e-3 0.21451-9e-3 0.37161-0.0087 0.1571 2.53e-4 0.28957-2e-3 0.29438-5e-3 0.00481-0.0029 0.042046-0.01053 0.082746-0.01689 0.24662-0.03826 0.47306-0.15481 0.59255-0.305 0.044221-0.05558 0.11259-0.18061 0.15915-0.29108 0.019098-0.0453 0.053994-0.22666 0.06146-0.31941 0.010439-0.12971-0.03134-0.41897-0.065559-0.45389-0.00518-0.0053-0.00942-0.01951-0.00942-0.03164 0-0.01211-0.00682-0.02769-0.015171-0.03461-0.00835-0.0069-0.015175-0.01863-0.015175-0.02602 0-0.02215-0.066074-0.1249-0.12855-0.19991-0.087162-0.10464-0.1977-0.18341-0.35193-0.25081-0.047248-0.02064-0.19063-0.05127-0.30345-0.06483-0.17553-0.02108-0.81247-0.02049-0.95663 8.9e-4 -0.27761 0.04117-0.48947 0.14118-0.62521 0.29517-0.028312 0.03212-0.05154 0.0636-0.051617 0.06995-3.237e-4 0.02615-0.076565 0.03243-0.11996 0.0099-0.014768-0.0077-0.038229-0.01863-0.052136-0.02438-0.062737-0.02589-0.28941-0.13991-0.33207-0.16703-0.18546-0.11793-0.3389-0.24064-0.33359-0.26678 0.0017-0.0085 0.046359-0.03786 0.099211-0.06535 0.18817-0.09789 0.25669-0.1365 0.26003-0.1465 0.00186-0.0055-0.015352-0.03035-0.038248-0.05504-0.080396-0.08671-0.22056-0.27143-0.24513-0.32306-0.00397-0.0084-0.01596-0.02883-0.026645-0.04552-0.016183-0.02529-0.057727-0.1003-0.092435-0.16691-0.00435-0.0084-0.022188-0.04704-0.039642-0.08598-0.017451-0.03894-0.035154-0.07764-0.039335-0.08598-0.00417-0.0084-0.017924-0.04931-0.030545-0.09104-0.012624-0.04172-0.02943-0.0918-0.037353-0.11127-0.00792-0.01947-0.015386-0.04847-0.016582-0.06444-0.00152-0.0203-0.02059-0.04768-0.063393-0.09104-0.033669-0.0341-0.089663-0.09614-0.12443-0.13787-0.034771-0.04172-0.069426-0.08269-0.077013-0.09104-0.00758-0.0084-0.033258-0.04476-0.057044-0.08092-0.023788-0.03616-0.045893-0.06802-0.049126-0.07081-0.0089-0.0077-0.026029-0.03751-0.072571-0.12644-0.023291-0.04451-0.046264-0.08244-0.051046-0.08429-0.00478-0.0019-0.00869-0.0094-0.00869-0.01688 0-0.0074-0.00763-0.02867-0.01693-0.0472-0.00932-0.01853-0.023288-0.04632-0.031061-0.06175-0.00778-0.01543-0.016353-0.04032-0.019072-0.05532-0.0027-0.015-0.00945-0.0327-0.01497-0.03935-0.00551-0.0066-0.012063-0.02331-0.014556-0.03705-0.00248-0.01374-0.011339-0.03803-0.019657-0.05399-0.00832-0.01595-0.015156-0.03895-0.015189-0.05111-3e-5 -0.01215-0.00436-0.03343-0.00963-0.04726-0.00527-0.01384-0.011848-0.04258-0.014649-0.06387-0.00281-0.02129-0.00985-0.06603-0.015664-0.09941-0.026629-0.15275-0.00678-0.49566 0.034391-0.5942 0.026378-0.06312 0.10495-0.12891 0.15409-0.12899 0.012191-2.1e-5 0.025845-0.0057 0.030346-0.01267 0.0045-0.0069 0.013556-0.27665 0.020124-0.59932 0.011936-0.58651 0.012344-0.59266 0.052866-0.80415 0.00479-0.02504 0.013455-0.05917 0.019239-0.07587 0.00579-0.01669 0.020591-0.06221 0.032906-0.10116 0.030549-0.09661 0.080352-0.21911 0.096961-0.2385 0.00753-0.0088 0.013677-0.02075 0.013677-0.02658 0-0.0184 0.088914-0.17227 0.14357-0.24846 0.093273-0.13003 0.19253-0.23629 0.32387-0.34673 0.14202-0.11942 0.22453-0.17262 0.39739-0.25625 0.13883-0.06716 0.16157-0.07678 0.24276-0.10266 0.038944-0.01242 0.079909-0.02616 0.091036-0.03054 0.062969-0.02482 0.30329-0.07429 0.46024-0.09475 0.45022-0.05869 0.92406-0.03684 1.3352 0.06154 0.058415 0.01398 0.11531 0.02897 0.12644 0.03332 0.011119 0.0043 0.052093 0.01822 0.091036 0.03083 0.14222 0.04605 0.35555 0.15009 0.47541 0.23184 0.203 0.13845 0.39345 0.33017 0.52824 0.53177 0.036362 0.05439 0.1142 0.20261 0.14872 0.28322 0.00714 0.01669 0.020973 0.04855 0.030723 0.07081 0.00975 0.02225 0.019579 0.05058 0.021847 0.06295 0.00226 0.01237 0.0095 0.03513 0.01606 0.05058 0.00656 0.01544 0.012267 0.03283 0.012675 0.03864 4.069e-4 0.0059 0.00825 0.03539 0.017441 0.06575 0.048081 0.15876 0.068443 0.33845 0.068724 0.60646 1.205e-4 0.11405 0.00325 0.35425 0.00695 0.53379l0.00673 0.32643 0.026179 0.0056c0.071026 0.01536 0.16273 0.08533 0.16273 0.12415 0 0.0096 0.00434 0.02178 0.00966 0.0271 0.03345 0.03345 0.054582 0.43575 0.030261 0.57599-0.00575 0.03337-0.01251 0.07435-0.014935 0.09104-0.00738 0.05071-0.036599 0.16118-0.045596 0.17221-0.00467 0.0057-0.010303 0.02163-0.012649 0.0354-0.00228 0.01377-0.011695 0.04196-0.020882 0.06265-0.00923 0.02069-0.016682 0.04048-0.016682 0.04399 0 0.0068-0.02162 0.05846-0.048461 0.11565-0.00911 0.01947-0.038639 0.0757-0.065567 0.12495-0.070483 0.12895-0.072503 0.13247-0.079069 0.13804-0.00325 0.0028-0.02759 0.03805-0.054019 0.0784-0.02643 0.04033-0.052194 0.07334-0.057255 0.07334-0.00506 0-0.0092 0.0051-0.0092 0.01129 0 0.01239-0.09077 0.11787-0.18966 0.22038-0.036621 0.03797-0.063219 0.07447-0.063219 0.08675 0 0.02888-0.10094 0.32304-0.1123 0.32726-0.00499 0.0019-0.00909 0.0102-0.00909 0.01867 0 0.0085-0.0063 0.02737-0.013989 0.04214-0.0077 0.01477-0.026715 0.05188-0.042274 0.08248-0.015556 0.0306-0.036536 0.06929-0.046616 0.08598-0.010076 0.01669-0.021418 0.03717-0.025193 0.04552-0.029153 0.06446-0.1355 0.21026-0.23908 0.32776-0.070407 0.07987-0.081904 0.09715-0.071506 0.10746 0.00483 0.0048 0.045172 0.02764 0.089678 0.05082 0.044507 0.02317 0.085473 0.04577 0.091036 0.05021 0.011924 0.0096 0.31838 0.16217 0.43495 0.21667 0.044507 0.02081 0.11278 0.05285 0.15173 0.07121 0.038944 0.01835 0.086738 0.04032 0.10621 0.04881 0.019472 0.0085 0.066243 0.02948 0.10393 0.04666 0.037694 0.01717 0.071525 0.03123 0.075194 0.03123 0.0037 0 0.02517 0.0087 0.047799 0.01923 0.022619 0.01052 0.059337 0.027 0.081586 0.0365 0.022249 0.0094 0.054115 0.02313 0.070808 0.03028 0.016693 0.0072 0.041721 0.01759 0.055635 0.02318 0.013904 0.0056 0.045769 0.01918 0.070808 0.0302s0.093307 0.03913 0.15173 0.06247c0.058414 0.02335 0.11759 0.04727 0.1315 0.05315 0.013904 0.0059 0.036663 0.01517 0.050577 0.02064 0.013904 0.0054 0.033244 0.014 0.042969 0.01895 0.00977 5e-3 0.064351 0.02733 0.12138 0.04971 0.057035 0.02239 0.1128 0.04465 0.12393 0.04947 0.070092 0.03037 0.11002 0.04709 0.27817 0.11651 0.10293 0.04249 0.21578 0.09071 0.2508 0.10717 0.03502 0.01645 0.0655 0.02991 0.06773 0.02991 0.0023 0 0.06917 0.03109 0.14874 0.06906 0.24107 0.11508 0.36634 0.20148 0.53534 0.36923 0.09184 0.09116 0.24153 0.27064 0.24153 0.28959 0 0.0062 0.0069 0.01377 0.01517 0.01697 0.0084 0.0031 0.01517 0.01194 0.01517 0.01941 0 0.0075 0.0056 0.01722 0.0126 0.02167 7e-3 0.0045 0.02175 0.02596 0.03287 0.04781 0.01111 0.02185 0.02478 0.04479 0.03035 0.051 0.03216 0.03588 0.20885 0.367 0.2512 0.47075 0.0102 0.025 0.02466 0.0591 0.03213 0.07579 0.0277 0.06194 0.04396 0.10307 0.06992 0.17702 0.01464 0.04172 0.02947 0.08269 0.03294 0.09104 0.0034 0.0084 0.0079 0.02338 0.01 0.03342 0.0019 0.01 0.01043 0.03143 0.0187 0.04755 0.0084 0.01612 0.01515 0.03999 0.01515 0.05307s0.0041 0.02809 9e-3 0.03338c0.0049 0.0053 0.02561 0.08244 0.04602 0.17145s0.04211 0.18232 0.04822 0.20736c0.0061 0.02504 0.01458 0.06828 0.01883 0.0961 0.0042 0.02782 0.01234 0.06878 0.01786 0.09104 0.02379 0.09492 0.04503 0.31574 0.0399 0.41472-5e-3 0.09707-0.02011 0.12941-0.0944 0.20251-0.06333 0.06232-0.16574 0.12176-0.28657 0.1663-0.0909 0.03352-0.10836 0.03837-0.27923 0.07767-0.06119 0.01408-0.1272 0.02927-0.14667 0.03378-0.12285 0.0284-0.22509 0.04854-0.35909 0.07077-0.03338 0.0054-0.10165 0.01735-0.15173 0.02626-0.05006 9e-3 -0.12518 0.02063-0.1669 0.02602-0.04172 0.0054-0.10546 0.01374-0.14161 0.01854-0.03617 0.0049-0.10671 0.01362-0.15678 0.01965-0.05006 6e-3 -0.09786 0.01378-0.10622 0.01727-0.0084 0.0034-0.05386 0.01054-0.10116 0.01574-0.04729 0.0052-0.11557 0.01339-0.15173 0.01823-0.03617 0.0049-0.10534 0.01327-0.15375 0.01874-0.048398 0.0054-0.09326 0.01317-0.099686 0.01715-0.00635 0.0041-0.055595 0.01133-0.10924 0.01646-0.053649 0.0051-0.13624 0.01327-0.18353 0.01823-0.047289 5e-3 -0.14142 0.01342-0.20919 0.01884-0.06777 0.0054-0.12825 0.01295-0.13442 0.01676-0.010643 0.0065-0.11778 0.01552-0.42009 0.03515-0.072325 0.0048-0.17019 0.01351-0.21748 0.01959-0.047288 0.0061-0.13246 0.01065-0.18928 0.01032-0.056816-4.08e-4 -0.10818 0.0023-0.11415 6e-3 -0.036451 0.02253-2.1047 0.07176-2.1259 0.05061zm0.19386-3.0333c-0.094028-0.02417-0.18161-0.07564-0.25905-0.15223-0.036943-0.03653-0.10509-0.14042-0.10509-0.16019 0-0.0076-0.00668-0.02256-0.014851-0.03336-0.00817-0.01075-0.014995-0.02961-0.015174-0.0418-4.076e-4 -0.02901-0.00445-0.03091-0.092399-0.04372-0.20164-0.02936-0.51383-0.11427-0.67667-0.18405-0.013908-6e-3 -0.038944-0.01638-0.055633-0.02314-0.10774-0.04371-0.36532-0.18252-0.44507-0.23985-0.30192-0.21707-0.4577-0.36259-0.66025-0.61674-0.14029-0.17603-0.32662-0.49428-0.4194-0.71634-0.00582-0.0139-0.016471-0.03894-0.023691-0.05564-0.01742-0.04028-0.078914-0.20957-0.0992-0.27311-0.036325-0.11377-0.045175-0.14498-0.061672-0.21748-0.0095-0.04172-0.021217-0.08724-0.026044-0.10116-0.010528-0.0303-0.039463-0.1753-0.050468-0.25288-0.00434-0.0306-0.012981-0.09205-0.019205-0.13655-0.00622-0.04451-0.01572-0.10876-0.021106-0.14278-0.00538-0.03402-0.010144-0.09092-0.010541-0.12644-4.076e-4 -0.03552-0.00383-0.08468-0.00758-0.10923l-0.00683-0.04465-0.063822-0.013c-0.035111-0.0072-0.076363-0.01498-0.091681-0.01739-0.042824-0.0067-0.17905-0.07267-0.2349-0.11367-0.057483-0.0422-0.12897-0.13887-0.15519-0.20986-0.016713-0.04525-0.018005-0.10901-0.018135-0.89519-1.338e-4 -0.79182 0.00104-0.84941 0.018072-0.89198 0.036754-0.09185 0.09057-0.1601 0.17139-0.21734 0.10105-0.07157 0.20596-0.11104 0.32521-0.12235 0.032361-3e-3 0.059795-0.0065 0.060967-0.0077 0.00467-0.0047 0.040273-0.17897 0.049401-0.24184 0.0041-0.02819 0.026719-0.10872 0.046169-0.16433 0.00584-0.01669 0.014222-0.04486 0.018631-0.06258 0.015745-0.0633 0.13065-0.31901 0.18561-0.41305 0.048942-0.08375 0.14166-0.22687 0.16074-0.24813 0.012744-0.01421 0.027726-0.03296 0.033288-0.04168 0.068765-0.1078 0.36678-0.41515 0.49476-0.51026 0.26446-0.19652 0.36995-0.26324 0.59767-0.37799 0.14908-0.07512 0.18717-0.09242 0.31863-0.14472 0.096415-0.03836 0.31364-0.10945 0.37445-0.12255 0.013803-0.0029 0.056961-0.01423 0.095904-0.02501 0.038944-0.01074 0.086738-0.02179 0.10621-0.02449 0.019473-0.0027 0.04223-0.0074 0.050575-0.01031 0.00835-3e-3 0.036847-0.0078 0.063337-0.01064 0.02649-0.0028 0.051886-0.0075 0.056435-0.01031 0.010405-0.0064 0.23688-0.03264 0.37081-0.0429 0.15504-0.01189 0.40084-0.01278 0.54116-2e-3 0.1582 0.01218 0.4072 0.03928 0.41713 0.0454 0.00411 0.0025 0.029145 0.0069 0.055634 0.0098 0.02649 0.0028 0.059543 0.0091 0.07345 0.01387 0.013907 0.0048 0.05715 0.01423 0.096094 0.02101 0.038944 0.0067 0.082186 0.01665 0.096094 0.02194 0.013907 0.0053 0.03667 0.01168 0.050575 0.01421 0.013907 0.0025 0.038943 9e-3 0.055634 0.0143 0.16809 0.05375 0.25619 0.0828 0.27311 0.09008 0.011119 0.0048 0.072575 0.03003 0.13655 0.05609 0.11241 0.04571 0.36663 0.17309 0.44996 0.22537 0.13495 0.08467 0.29054 0.19414 0.38168 0.26855 0.13935 0.11377 0.33411 0.30623 0.42271 0.41772 0.01386 0.01744 0.037857 0.04738 0.053313 0.06651 0.12161 0.15056 0.28725 0.44347 0.35687 0.63109 0.062224 0.16769 0.11066 0.35274 0.13167 0.503 0.00748 0.05382 0.00725 0.0536 0.082174 0.06175 0.16105 0.01752 0.32332 0.09801 0.4124 0.20457 0.06355 0.07603 0.08743 0.13693 0.09643 0.24591 0.01159 0.14036 0.0043 1.6169-8e-3 1.6541-0.04315 0.12894-0.14609 0.24062-0.27812 0.30174-0.10985 0.05086-0.1957 0.06746-0.3489 0.06746-0.076876 0-0.1441-4e-3 -0.14938-0.0089-0.00532-0.0049-0.026149-0.01418-0.046358-0.02063-0.043516-0.01388-0.11957-0.08706-0.12123-0.11662-6.295e-4 -0.01142-0.00228-0.4987-0.00369-1.0829-0.00282-1.2201-0.00434-1.247-0.081489-1.5113-0.052976-0.18137-0.1116-0.31645-0.21111-0.48644-0.1969-0.33635-0.50557-0.64216-0.87595-0.86787-0.087805-0.05351-0.3414-0.18303-0.41978-0.21441-0.011125-0.0045-0.036162-0.01488-0.055633-0.02317-0.10983-0.04678-0.4152-0.13949-0.51081-0.15509-0.01669-0.0027-0.044-0.0089-0.060691-0.01365-0.01669-0.0048-0.069035-0.01397-0.11632-0.02039-0.047288-0.0064-0.10191-0.01602-0.12138-0.02133-0.095918-0.02612-0.68323-0.03576-0.84967-0.01395-0.10761 0.01411-0.30047 0.04565-0.39955 0.06535-0.27223 0.05413-0.60611 0.17911-0.89557 0.33524-0.27333 0.14743-0.58881 0.40904-0.78384 0.64999-0.01653 0.02043-0.038688 0.04724-0.049244 0.05957-0.010552 0.01236-0.045629 0.06342-0.07794 0.11349-0.032313 0.05007-0.062491 0.09559-0.067067 0.10116-0.012547 0.01526-0.10108 0.1874-0.12225 0.23771-0.00585 0.0139-0.020039 0.04748-0.031528 0.07462-0.011478 0.02714-0.020884 0.05565-0.020884 0.06335s-0.00427 0.02192-0.00951 0.03158c-0.012921 0.02387-0.051181 0.15814-0.051181 0.17962 0 0.0095-0.00657 0.0384-0.014619 0.06418-0.033117 0.10618-0.035957 0.21782-0.035576 1.3978 4.445e-4 1.3638 0.00338 1.4334 0.075767 1.7848 0.00916 0.04451 0.02082 0.101 0.025897 0.12556 0.00508 0.02455 0.016379 0.07007 0.025119 0.10116s0.02284 0.08155 0.031334 0.11215c0.0085 0.0306 0.021829 0.07058 0.029626 0.08885 0.0078 0.01827 0.014177 0.03928 0.014177 0.0467 0 0.01169 0.023763 0.07787 0.051209 0.14262 0.00473 0.01112 0.020632 0.04982 0.035366 0.08598 0.048229 0.11836 0.14033 0.30022 0.20492 0.40461 0.012051 0.01947 0.025129 0.04223 0.029066 0.05058 0.00394 0.0084 0.010745 0.01972 0.015129 0.02529 0.031326 0.03978 0.079034 0.10736 0.079034 0.11195 0 0.0049 0.056891 0.0815 0.070805 0.09541 0.00278 0.0028 0.02151 0.02554 0.041615 0.05058 0.13142 0.16364 0.3902 0.3912 0.56363 0.49564 0.12228 0.07364 0.28615 0.16021 0.30512 0.16118 0.00835 4.45e-4 0.028827 0.0079 0.045519 0.01662 0.090698 0.04732 0.4284 0.14169 0.57819 0.16156 0.050019 0.0066 0.051425 0.0061 0.058424-0.02177 0.025425-0.10131 0.1289-0.2543 0.2158-0.31905 0.046718-0.03482 0.13382-0.08347 0.13382-0.07475 0 0.0024 0.015784-0.0022 0.035079-0.0103 0.029066-0.01214 0.12308-0.01465 0.54881-0.01465 0.33122 0 0.52629 0.0038 0.54907 0.01064 0.019436 0.0059 0.042164 0.01233 0.050509 0.01435 0.14078 0.03417 0.29764 0.18985 0.33659 0.33406 0.021587 0.07994 0.026815 0.41727 0.00784 0.50551-0.033672 0.15653-0.16763 0.30075-0.33507 0.36075-0.064369 0.02306-0.069904 0.0233-0.58591 0.02501-0.36659 0.0012-0.53442-0.0017-0.56645-0.01z" stroke-width=".010115"/>
  <path d="m46.341 34.209c-0.2617-0.09144-0.4378-0.27379-0.51247-0.53066l-0.03996-0.13745-0.34341-0.16505c-0.69869-0.3358-1.267-0.76824-1.723-1.3111-0.67366-0.80193-1.0483-1.7249-1.1361-2.7986-0.01414-0.1731-0.03291-0.32636-0.0417-0.34059-0.0088-0.01422-0.05643-0.03346-0.10586-0.04273-0.22692-0.04257-0.46809-0.28075-0.54437-0.5376-0.05935-0.19985-0.05935-2.6385 0-2.8384 0.08014-0.26987 0.3035-0.48208 0.57627-0.54752l0.12795-0.0307 0.0893-0.24786c0.46834-1.2999 1.4542-2.3877 2.7029-2.9823 0.7685-0.36593 1.572-0.5407 2.482-0.53987 0.94031 8.21e-4 1.7354 0.17575 2.5118 0.55254 0.70573 0.34247 1.2493 0.7669 1.7598 1.3741 0.37959 0.45151 0.72705 1.0536 0.92043 1.595l0.08835 0.24734 0.13011 0.03121c0.1746 0.04188 0.35583 0.16095 0.45648 0.29988 0.16177 0.22331 0.16485 0.25735 0.15635 1.7247-0.0075 1.2876-0.0095 1.3346-0.06446 1.4533-0.08297 0.17932-0.20958 0.3099-0.38307 0.3951-0.15247 0.07487-0.15554 0.0752-0.70566 0.0752-0.55012 0-0.55319-3.26e-4 -0.70566-0.0752-0.17349-0.0852-0.3001-0.21578-0.38307-0.3951-0.05538-0.11969-0.05675-0.15624-0.05675-1.5107v-1.388l0.07752-0.15787c0.072-0.14664 0.07514-0.16581 0.04408-0.26946-0.03831-0.12788-0.24041-0.53854-0.34548-0.70202-0.31065-0.48332-0.74889-0.92154-1.234-1.2339-0.33343-0.21471-0.87885-0.43135-1.3182-0.52361-0.34639-0.07273-1.5328-0.07439-1.8732-0.0026-0.54865 0.11569-1.1085 0.35822-1.5472 0.67023-0.25902 0.18425-0.69907 0.62488-0.88397 0.88513-0.17353 0.24426-0.33887 0.5418-0.44007 0.79195l-0.08596 0.21247 0.16758 0.32483 0.0086 1.3096c0.0094 1.426 0.0037 1.499-0.13461 1.717l-0.08325 0.13127 0.04462 0.44491c0.06357 0.63402 0.17342 1.0207 0.41349 1.4556 0.32074 0.58105 0.86664 1.1118 1.4724 1.4316l0.18501 0.09765 0.32596-0.16812h1.3904c1.3569 0 1.3934 0.0013 1.5131 0.05675 0.17932 0.08297 0.3099 0.20958 0.3951 0.38307 0.07487 0.15247 0.0752 0.15554 0.0752 0.70566 0 0.50496-0.0048 0.56308-0.05675 0.67518-0.08297 0.17932-0.20958 0.3099-0.38307 0.3951l-0.15313 0.0752-1.3476 0.0063c-1.2255 0.0057-1.3599 0.0021-1.4829-0.04093zm0.97085-2.8244c-0.69554-0.10675-1.3554-0.43785-1.8468-0.9267-0.37895-0.37695-0.64239-0.80138-0.78923-1.2715-0.10128-0.32426-0.11779-0.44416-0.20751-1.5064-0.0932-1.1035-0.09554-1.2002-0.03838-1.5851 0.11096-0.74725 0.45444-1.4243 0.99355-1.9584 0.47962-0.47517 1.0487-0.77804 1.7267-0.91895 0.33466-0.06956 1.1618-0.07089 1.5033-0.0025 1.5453 0.30981 2.6805 1.6316 2.7588 3.2123 0.01656 0.33426-0.1237 2.1132-0.19235 2.4395-0.19864 0.94429-0.84037 1.7617-1.7337 2.2083-0.60204 0.30097-1.4465 0.42114-2.1743 0.30943z" stroke-width=".026952"/>
  <path d="m11.643-14.333c-0.27187-0.09132-0.45481-0.27342-0.53238-0.52996l-0.04151-0.13727-0.35675-0.16482c-0.72584-0.33535-1.3162-0.76722-1.79-1.3094-0.69983-0.80086-1.0891-1.7226-1.1802-2.7949-0.014691-0.17286-0.034185-0.32592-0.04332-0.34013-0.00913-0.01421-0.058622-0.03341-0.10997-0.04267-0.23573-0.04251-0.48628-0.28037-0.56552-0.53688-0.061655-0.19958-0.061655-2.635 0-2.8346 0.083258-0.26951 0.31529-0.48144 0.59866-0.54679l0.13292-0.03065 0.092767-0.24752c0.48654-1.2982 1.5107-2.3845 2.8079-2.9783 0.79836-0.36544 1.633-0.53998 2.5785-0.53915 0.97684 8.54e-4 1.8028 0.17552 2.6094 0.5518 0.73316 0.34201 1.2978 0.76588 1.8282 1.3723 0.39434 0.45091 0.7553 1.0522 0.95619 1.5928l0.09178 0.24701 0.13517 0.03117c0.18138 0.04183 0.36966 0.16073 0.47421 0.29948 0.16805 0.22301 0.17126 0.257 0.16242 1.7224-0.0078 1.2858-0.01 1.3328-0.06697 1.4514-0.08619 0.17908-0.21772 0.30949-0.39795 0.39457-0.15839 0.07477-0.16158 0.0751-0.73308 0.0751s-0.57468-3.26e-4 -0.73307-0.0751c-0.18022-0.08508-0.31175-0.21549-0.39794-0.39457-0.05753-0.11953-0.05895-0.15603-0.05895-1.5087v-1.3862l0.08053-0.15766c0.07479-0.14644 0.07805-0.16559 0.0458-0.2691-0.03981-0.12771-0.24976-0.53782-0.35892-0.70109-0.32272-0.48268-0.77799-0.92031-1.2819-1.2323-0.34639-0.21442-0.91299-0.43078-1.3694-0.52291-0.35985-0.07263-1.5924-0.07429-1.946-0.0026-0.56997 0.11553-1.1516 0.35774-1.6073 0.66933-0.26909 0.184-0.72623 0.62404-0.91831 0.88395-0.18027 0.24393-0.35204 0.54108-0.45717 0.79089l-0.089301 0.21219 0.17409 0.3244 0.00894 1.3079c0.00974 1.4241 0.0038 1.497-0.13984 1.7147l-0.086484 0.1311 0.046345 0.44432c0.066046 0.63317 0.18016 1.0194 0.42956 1.4537 0.3332 0.58028 0.90032 1.1103 1.5297 1.4296l0.1922 0.09752 0.33862-0.16788h1.4445c1.4096 0 1.4475 0.0013 1.5719 0.05668 0.18629 0.08287 0.32194 0.2093 0.41045 0.38256 0.07778 0.15226 0.07812 0.15533 0.07812 0.70472 0 0.50429-0.0051 0.56233-0.05896 0.67428-0.08619 0.17908-0.21772 0.30949-0.39795 0.39457l-0.15908 0.0751-1.4 0.0063c-1.2731 0.0058-1.4127 0.0021-1.5406-0.04087zm1.0993-3.2766c-1.1426-0.20787-2.0367-1.053-2.2899-2.1646-0.03075-0.135-0.08426-0.62958-0.12915-1.1937-0.0684-0.85952-0.07301-0.99456-0.04289-1.2549 0.09204-0.7957 0.40895-1.442 0.96092-1.9597 0.25689-0.24092 0.44862-0.37118 0.76632-0.52057 0.42652-0.20057 0.68307-0.25198 1.26-0.25247 0.57225-4.89e-4 0.82229 0.04986 1.26 0.25373 0.91973 0.42839 1.5456 1.2817 1.7079 2.3285 0.02295 0.14804 0.04181 0.34529 0.0419 0.43833 3.29e-4 0.336-0.14395 1.9353-0.19492 2.1607-0.14255 0.63032-0.51062 1.2087-1.0204 1.6035-0.27716 0.21463-0.75348 0.445-1.0805 0.52255-0.31622 0.075-0.93362 0.09425-1.2393 0.03864z" stroke-width=".027453"/>
  <path d="m6.3178-1.3158c-0.17221-0.06017-0.29096-0.1458-0.38803-0.2798-0.082949-0.11451-0.15708-0.32646-0.15708-0.44914 0-0.06599-0.022325-0.08593-0.19167-0.17121-1.0937-0.55077-1.955-1.5036-2.3743-2.6265-0.17691-0.47379-0.2528-0.83522-0.32331-1.5397l-0.014978-0.14964-0.19149-0.012397c-0.33372-0.021603-0.569-0.1696-0.70281-0.44208l-0.074267-0.15123v-2.7416l0.074267-0.15123c0.1331-0.27103 0.36937-0.42049 0.69844-0.4418l0.18712-0.01212 0.10472-0.32294c0.12776-0.39398 0.39963-0.95021 0.63923-1.3078 0.79275-1.1831 1.9636-1.9468 3.3536-2.1873 0.38807-0.06715 1.4337-0.06709 1.8327 1.21e-4 1.4212 0.23935 2.6222 1.0439 3.4357 2.3013 0.18806 0.29071 0.44703 0.84249 0.56252 1.1985l0.10314 0.318 0.15536 0.01409c0.29669 0.0269 0.544 0.20076 0.66858 0.47001 0.0547 0.1182 0.05605 0.1543 0.05605 1.4919 0 1.3376-0.0014 1.3737-0.05605 1.4919-0.08194 0.17709-0.20697 0.30605-0.37831 0.39019-0.15057 0.073942-0.1536 0.074266-0.69689 0.074266-0.54328 0-0.54632-3.214e-4 -0.69689-0.074266-0.17133-0.084137-0.29637-0.2131-0.37831-0.39019-0.05414-0.11701-0.05633-0.16507-0.06454-1.4121-0.0092-1.4043-0.0035-1.4782 0.13209-1.6919l0.08137-0.1283-0.07169-0.21447c-0.1885-0.56386-0.50785-1.0885-0.92836-1.5251-0.45588-0.47332-0.91787-0.77404-1.494-0.97251-0.4763-0.16408-0.67249-0.19206-1.3442-0.19174-0.64643 3.13e-4 -0.8475 0.02591-1.2643 0.16099-1.1683 0.37859-2.1161 1.3451-2.5144 2.5639l-0.081403 0.2491 0.073512 0.14969 0.073512 0.14969v1.3708c0 1.3651-2.412e-4 1.3713-0.059857 1.5005-0.059694 0.12938-0.059751 0.13094-0.021627 0.55897 0.042272 0.47468 0.087931 0.72241 0.19193 1.0414 0.1645 0.50461 0.55627 1.1259 0.93099 1.4764 0.20629 0.19298 0.55846 0.45994 0.70607 0.53525l0.10043 0.05124 0.12416-0.07874c0.20915-0.13264 0.2879-0.13868 1.6878-0.12946l1.2909 0.0085 0.15123 0.07427c0.17133 0.08414 0.29637 0.2131 0.37831 0.39019 0.05123 0.1107 0.05605 0.1681 0.05605 0.66679 0 0.49869-0.0048 0.55609-0.05605 0.66679-0.08194 0.17709-0.20697 0.30605-0.37831 0.39019l-0.15123 0.07427-1.3309 0.0062c-1.2102 0.0057-1.343 2e-3 -1.4645-0.04043zm1.045-3.2402c-1.0862-0.20556-1.9362-1.0413-2.1769-2.1406-0.029234-0.1335-0.080104-0.62259-0.12277-1.1804-0.06502-0.84997-0.069412-0.98351-0.040779-1.241 0.087495-0.78686 0.38877-1.426 0.91349-1.9379 0.24421-0.23825 0.42648-0.36705 0.72849-0.51479 0.40546-0.19834 0.64935-0.24918 1.1978-0.24967 0.54401-4.94e-4 0.7817 0.04931 1.1978 0.25091 0.87433 0.42363 1.4693 1.2674 1.6236 2.3026 0.02182 0.1464 0.03974 0.34145 0.03983 0.43346 3.12e-4 0.33226-0.13684 1.9138-0.1853 2.1367-0.13551 0.62332-0.48542 1.1953-0.97006 1.5857-0.26347 0.21225-0.71629 0.44006-1.0271 0.51674-0.30061 0.074161-0.88754 0.093202-1.1781 0.038213zm0.88282-1.1984c0.49975-0.1178 0.94532-0.56264 1.1054-1.1036 0.059012-0.19945 0.18378-1.7784 0.16405-2.0762-0.045349-0.68466-0.4252-1.2998-0.96084-1.556-0.23117-0.11057-0.40449-0.14752-0.69205-0.14752-0.28756 0-0.46088 0.03694-0.69205 0.14752-0.53552 0.25614-0.91499 0.87051-0.96106 1.556-0.019955 0.29691 0.10497 1.8756 0.16429 2.0762 0.15791 0.53386 0.60429 0.984 1.0931 1.1023 0.20783 0.050301 0.56859 0.050878 0.77917 0.00121z" stroke-width=".026618"/>
 </g>
 <path d="m6.4091 12.537c-0.69767-0.0272-1.4371-0.18716-2.0506-0.44359-0.25384-0.10611-0.2817-0.11089-1.3988-0.24008-0.62687-0.0725-1.1944-0.14252-1.2611-0.15561-0.28432-0.05576-0.60627-0.28075-0.75377-0.52678-0.08529-0.14225-0.16763-0.39102-0.17642-0.53296-0.0038-0.06122 0.04879-0.56834 0.11685-1.1269l0.12374-1.0156-0.07827-0.30096c-0.32647-1.2553-0.23184-2.565 0.27113-3.7523 0.79408-1.8745 2.514-3.2084 4.5562-3.5334 1.7495-0.27845 3.6093 0.28503 4.9034 1.4856 0.8903 0.82598 1.4831 1.862 1.7532 3.064 0.09434 0.41984 0.14755 1.2904 0.10444 1.7083-0.20746 2.0101-1.304 3.6788-3.0498 4.6409-0.91185 0.50257-2.032 0.7696-3.0602 0.7295zm1.0905-1.3237c1.7506-0.33936 3.1532-1.634 3.6121-3.3339 0.22649-0.83896 0.222-1.6907-0.01318-2.5051-0.11951-0.41383-0.41884-1.0197-0.6818-1.3801-0.93808-1.2855-2.4682-2.0054-4.0527-1.9066-1.9773 0.12321-3.6853 1.5111-4.1984 3.4117-0.23782 0.88093-0.22774 1.632 0.03435 2.5591l0.0922 0.32615-0.12945 1.0547c-0.08571 0.69827-0.11892 1.0572-0.09827 1.0621 0.01715 0.0041 0.56277 0.06796 1.2125 0.14192l1.1813 0.13447 0.26798 0.12024c0.85276 0.38261 1.8444 0.49535 2.7733 0.31528zm0.50468-1.6761c-0.40954-0.047665-0.68396-0.15032-1.3528-0.50604-1.2993-0.69105-1.7045-1.0522-2.4272-2.1637-0.58906-0.90589-0.70572-1.1733-0.7401-1.6963-0.02539-0.38607 0.0011-0.5488 0.14077-0.86452 0.24982-0.56477 0.83644-0.9843 1.2335-0.88215 0.14564 0.037467 0.21994 0.12655 0.42427 0.50862 0.34644 0.64782 0.46219 1.0228 0.39972 1.2949-0.03066 0.13358-0.07067 0.19392-0.29938 0.45155-0.29226 0.32921-0.30316 0.36132-0.18837 0.55463 0.08248 0.13889 0.38496 0.51587 0.64184 0.79991 0.31773 0.35133 1.1861 0.95892 1.3554 0.94837 0.08268-0.00515 0.15867-0.065656 0.38362-0.30545 0.24634-0.2626 0.38679-0.33566 0.63563-0.33067 0.26098 0.00525 0.48588 0.068517 0.99818 0.28083 0.48545 0.20118 0.62596 0.2975 0.6667 0.45701 0.08455 0.33111-0.19596 0.84723-0.61749 1.1361-0.33421 0.22903-0.86254 0.36252-1.2543 0.31692z" fill="#fff" stroke-width=".027829"/>
 <path d="m-12.187 11.461c-0.38189-0.05815-0.7935-0.22511-1.1282-0.45763-0.5737-0.39858-0.99956-1.1108-1.0982-1.8365-0.03917-0.28826-0.03917-5.0983 0-5.3865 0.16076-1.1831 1.0849-2.1292 2.2408-2.2937 0.28531-0.040622 8.3138-0.040622 8.5992 0 1.1558 0.16456 2.08 1.1106 2.2408 2.2937 0.03917 0.28826 0.03917 5.0983 0 5.3865-0.09861 0.72575-0.52448 1.4379-1.0982 1.8365-0.23322 0.16204-0.60806 0.33872-0.87145 0.41077l-0.22219 0.06078-4.2566 0.0044c-2.3411 0.0024-4.3238-0.0058-4.406-0.01834zm8.6616-1.2498c0.08505-0.02268 0.21452-0.07411 0.28772-0.11431 0.15841-0.08698 0.48203-0.40847 0.55416-0.55052l0.05124-0.10089-0.2359-0.24855c-0.12975-0.1367-0.58427-0.60853-1.0101-1.0485l-0.77415-0.79996-0.98628 1.0019c-1.0768 1.0938-1.1366 1.1427-1.5906 1.2991-0.41099 0.14161-0.98791 0.11826-1.4126-0.057177-0.34499-0.14252-0.44889-0.23236-1.4656-1.2674l-0.9864-1.0041-1.0039 1.0309c-0.58964 0.60548-1.0039 1.0513-1.0039 1.0802 0 0.15787 0.37099 0.55062 0.65558 0.69404l0.17097 0.08616 3.9024 0.01367c2.1463 0.0075 4.0803 0.0166 4.2976 0.02017 0.2878 0.0047 0.43719-0.0047 0.54981-0.03472zm-3.9679-1.7702c0.13471-0.063131 0.40323-0.33021 2.4308-2.4178 1.2536-1.2908 2.3126-2.3874 2.3534-2.437l0.074-0.090112-0.05054-0.096438c-0.1399-0.26698-0.49104-0.55597-0.79065-0.65069-0.16136-0.051017-0.28031-0.052509-4.3899-0.055063-4.1864-0.00261-4.2255-0.00216-4.3967 0.052438-0.29354 0.093601-0.58824 0.3259-0.7697 0.60675-0.03806 0.058907-0.06921 0.11713-0.06921 0.12939 0 0.037322 4.65 4.8146 4.7642 4.8946 0.24296 0.17019 0.56543 0.19461 0.8443 0.063921zm4.9804-1.974v-1.3379l-0.64374 0.65854c-0.35406 0.3622-0.64374 0.67065-0.64374 0.68544 0 0.022215 1.2593 1.3318 1.2807 1.3318 0.0037 0 0.0068-0.60204 0.0068-1.3379zm-9.4328-0.020379c0-0.015021-0.28968-0.32365-0.64374-0.68585l-0.64374-0.65854v2.6888l0.64374-0.65854c0.35406-0.3622 0.64374-0.67083 0.64374-0.68585z" fill="#ff2a2a" stroke-width=".026584"/>
 <ellipse cx="21.378" cy="26.24" rx="5.1004" ry="5.4042" stroke="#a3f1fd" stroke-width=".0058208" style="paint-order:stroke fill markers"/>
 <path d="m30.438 15.947c-1.1222-0.11285-2.3016-0.5983-3.1856-1.3112-1.2536-1.011-2.0681-2.526-2.2246-4.138-0.17292-1.7809 0.47069-3.5745 1.7379-4.8433 0.49491-0.49551 1.0148-0.86598 1.6475-1.174 1.6836-0.81967 3.6209-0.81391 5.3109 0.015782 1.2202 0.59907 2.1571 1.5359 2.7561 2.7562 0.84559 1.7223 0.83486 3.6813-0.0296 5.4051-1.1135 2.2202-3.5251 3.5397-6.0126 3.2895zm2.4999-2.9637c0.55354-0.1247 1.0232-0.49248 1.2105-0.94784 0.11404-0.27732 0.07942-0.52965-0.09106-0.66374-0.04482-0.03525-0.28798-0.16581-0.54037-0.29012-0.67287-0.33143-1.025-0.40933-1.2955-0.28657-0.06639 0.03014-0.2308 0.15849-0.36535 0.28524-0.2612 0.24604-0.34148 0.28596-0.46887 0.23319-0.10346-0.04285-0.56885-0.39212-0.84181-0.63175-0.22746-0.19969-0.7383-0.84797-0.93605-1.1879-0.17129-0.29443-0.16586-0.3166 0.15572-0.63557 0.14964-0.14843 0.29435-0.31107 0.32157-0.36143 0.06484-0.11994 0.06482-0.45972-2.9e-5 -0.69991-0.11783-0.43635-0.4708-1.1861-0.60296-1.2808-0.12528-0.089759-0.44285-0.079364-0.64518 0.021116-0.42065 0.20891-0.71296 0.55321-0.88097 1.0376-0.07009 0.20213-0.07954 0.27118-0.08028 0.58701-0.0011 0.52629 0.07524 0.77465 0.45824 1.489 0.60832 1.1345 1.0083 1.6725 1.547 2.0809 0.55264 0.41892 1.4945 1.0007 1.8288 1.1296 0.4323 0.16672 0.84538 0.20779 1.2265 0.12193z" stroke-width=".028634"/>
</svg>
